<svg width="734" height="550" viewBox="0 0 734 550" fill="none" xmlns="http://www.w3.org/2000/svg">
<circle cx="561" cy="303.608" r="246" fill="#2BB32A"/>
<g filter="url(#filter0_d_1_61)">
<g filter="url(#filter1_b_1_61)">
<rect x="104.118" y="10.6083" width="551.298" height="348.188" rx="32" transform="rotate(15 104.118 10.6083)" fill="url(#paint0_linear_1_61)" fill-opacity="0.37"/>
<rect x="104.118" y="10.6083" width="551.298" height="348.188" rx="32" transform="rotate(15 104.118 10.6083)" stroke="url(#paint1_linear_1_61)" stroke-opacity="0.5" stroke-width="2"/>
</g>
<path d="M95.9211 269.796L98.5662 259.924L100.365 260.406L102.888 268.677L102.915 268.684L104.814 261.598L106.491 262.048L103.846 271.919L102.047 271.438L99.5372 263.17L99.5101 263.163L97.6114 270.249L95.9211 269.796ZM107.569 273.062C106.866 272.874 106.362 272.536 106.058 272.048C105.765 271.555 105.707 270.979 105.883 270.32C106.103 269.5 106.592 268.955 107.351 268.684C108.109 268.414 109.079 268.437 110.26 268.754L111.247 269.018C111.339 268.676 111.364 268.402 111.322 268.198C111.292 267.987 111.183 267.817 110.995 267.69C110.816 267.564 110.541 267.452 110.172 267.353C109.721 267.232 109.24 267.152 108.729 267.112C108.227 267.074 107.74 267.088 107.268 267.155L107.403 265.785C107.909 265.737 108.454 265.738 109.04 265.789C109.625 265.84 110.198 265.94 110.757 266.089C111.469 266.28 112.005 266.516 112.365 266.796C112.733 267.078 112.954 267.446 113.025 267.9C113.097 268.354 113.043 268.915 112.864 269.582L111.676 274.018L110.094 273.594L110.298 272.779L110.271 272.771C109.952 272.986 109.539 273.121 109.031 273.178C108.525 273.227 108.038 273.188 107.569 273.062ZM108.512 271.923C108.846 272.013 109.168 272.036 109.479 271.994C109.792 271.943 110.058 271.835 110.276 271.671C110.493 271.507 110.637 271.295 110.707 271.033L110.936 270.181L110.192 269.982C109.417 269.774 108.803 269.721 108.351 269.822C107.91 269.916 107.634 270.171 107.523 270.586C107.441 270.892 107.483 271.165 107.652 271.403C107.82 271.641 108.106 271.815 108.512 271.923ZM113.456 274.495L115.34 267.463L116.882 267.876L116.688 268.708L116.715 268.715C117.05 268.476 117.414 268.323 117.809 268.255C118.207 268.178 118.64 268.202 119.109 268.327C119.569 268.451 119.933 268.64 120.203 268.896C120.484 269.145 120.651 269.441 120.704 269.784L120.731 269.791C121.091 269.53 121.467 269.37 121.86 269.311C122.253 269.252 122.688 269.286 123.166 269.415C123.923 269.617 124.419 269.968 124.653 270.465C124.889 270.954 124.892 271.626 124.663 272.483L123.409 277.161L121.8 276.73L122.945 272.457C123.087 271.925 123.106 271.514 122.999 271.225C122.893 270.936 122.651 270.74 122.272 270.639C121.822 270.518 121.426 270.572 121.085 270.799C120.743 271.026 120.506 271.388 120.373 271.884L119.257 276.049L117.635 275.614L118.812 271.219C118.936 270.759 118.934 270.387 118.807 270.102C118.683 269.808 118.445 269.614 118.094 269.519C117.823 269.447 117.556 269.453 117.292 269.536C117.037 269.623 116.809 269.769 116.609 269.977C116.417 270.186 116.279 270.449 116.195 270.764L115.079 274.929L113.456 274.495ZM128.541 278.681C127.297 278.348 126.426 277.776 125.928 276.967C125.429 276.157 125.337 275.166 125.652 273.994C125.956 272.858 126.502 272.048 127.289 271.563C128.085 271.08 129.019 270.983 130.092 271.27C131.129 271.548 131.849 272.07 132.252 272.835C132.656 273.6 132.707 274.546 132.405 275.673C132.371 275.799 132.329 275.938 132.279 276.089C132.229 276.24 132.19 276.35 132.162 276.419L126.401 274.876L126.723 273.672L131.213 274.875L130.872 275.175C131.07 274.436 131.072 273.852 130.877 273.423C130.695 272.988 130.319 272.694 129.751 272.541C129.147 272.38 128.637 272.446 128.22 272.74C127.814 273.027 127.513 273.536 127.318 274.266L127.191 274.74C127.007 275.425 127.051 275.983 127.322 276.413C127.596 276.834 128.098 277.142 128.828 277.338C129.207 277.44 129.622 277.512 130.074 277.556C130.529 277.591 130.94 277.59 131.307 277.553L131.162 278.906C130.783 278.949 130.362 278.952 129.899 278.915C129.435 278.878 128.983 278.8 128.541 278.681Z" fill="#B9BEBD"/>
<path d="M130.174 160.463C129.101 160.176 128.231 159.726 127.565 159.112C126.898 158.499 126.459 157.758 126.247 156.889C126.044 156.023 126.084 155.063 126.367 154.008C126.652 152.944 127.097 152.093 127.704 151.453C128.321 150.807 129.072 150.385 129.956 150.187C130.84 149.989 131.819 150.034 132.891 150.321C134.117 150.65 135.132 151.207 135.937 151.992L135.146 153.375C134.366 152.606 133.499 152.093 132.543 151.837C131.831 151.646 131.175 151.625 130.575 151.773C129.977 151.913 129.467 152.211 129.045 152.668C128.623 153.125 128.312 153.727 128.111 154.476C127.913 155.215 127.881 155.892 128.016 156.508C128.153 157.115 128.444 157.633 128.89 158.061C129.338 158.481 129.918 158.786 130.63 158.977C131.559 159.226 132.566 159.216 133.653 158.946L133.647 160.539C132.557 160.817 131.4 160.792 130.174 160.463ZM135.117 161.643L137.002 154.611L138.597 155.039L138.256 156.368L138.283 156.375C138.599 156.131 138.944 155.943 139.318 155.812C139.703 155.673 140.104 155.602 140.52 155.598C140.939 155.584 141.361 155.634 141.784 155.748L141.4 157.181C140.832 157.029 140.285 156.998 139.758 157.089C139.24 157.182 138.792 157.376 138.414 157.671C138.047 157.959 137.803 158.329 137.682 158.779L136.794 162.093L135.117 161.643ZM144.022 164.174C142.777 163.841 141.906 163.269 141.408 162.459C140.91 161.649 140.818 160.658 141.132 159.487C141.437 158.351 141.982 157.54 142.769 157.055C143.565 156.573 144.5 156.475 145.573 156.763C146.609 157.041 147.33 157.562 147.733 158.327C148.137 159.093 148.188 160.039 147.886 161.166C147.852 161.292 147.81 161.43 147.76 161.581C147.71 161.732 147.671 161.842 147.642 161.912L141.882 160.368L142.204 159.165L146.694 160.368L146.352 160.668C146.551 159.929 146.552 159.344 146.358 158.916C146.175 158.48 145.8 158.186 145.232 158.034C144.628 157.872 144.117 157.938 143.7 158.232C143.295 158.52 142.994 159.029 142.799 159.759L142.672 160.232C142.488 160.918 142.532 161.475 142.803 161.905C143.077 162.327 143.579 162.635 144.309 162.831C144.688 162.932 145.103 163.005 145.555 163.049C146.01 163.083 146.421 163.082 146.788 163.046L146.643 164.398C146.264 164.442 145.843 164.445 145.379 164.407C144.916 164.37 144.463 164.292 144.022 164.174ZM150.894 166.016C149.957 165.764 149.312 165.249 148.961 164.468C148.609 163.688 148.588 162.721 148.897 161.567C149.207 160.413 149.708 159.586 150.403 159.086C151.097 158.586 151.913 158.462 152.851 158.713C153.32 158.839 153.722 159.033 154.057 159.297C154.392 159.561 154.648 159.886 154.825 160.271L154.865 160.282L155.847 156.617L157.484 157.056L154.839 166.927L153.283 166.511L153.477 165.679L153.45 165.671C153.107 165.908 152.709 166.057 152.258 166.12C151.817 166.176 151.363 166.141 150.894 166.016ZM151.689 164.779C152.041 164.873 152.371 164.885 152.68 164.813C152.998 164.743 153.272 164.604 153.502 164.395C153.732 164.186 153.89 163.924 153.974 163.609L154.315 162.337C154.402 162.013 154.397 161.707 154.3 161.42C154.205 161.124 154.042 160.868 153.81 160.651C153.578 160.435 153.282 160.278 152.921 160.181C152.353 160.029 151.858 160.109 151.437 160.421C151.024 160.736 150.718 161.263 150.52 162.002C150.322 162.741 150.323 163.35 150.523 163.829C150.733 164.31 151.121 164.627 151.689 164.779ZM159.154 159.213L159.581 157.618L161.258 158.067L160.831 159.663L159.154 159.213ZM156.936 167.49L158.81 160.498L160.486 160.947L158.613 167.939L156.936 167.49ZM163.826 169.48C162.996 169.258 162.442 168.926 162.165 168.485C161.887 168.043 161.852 167.435 162.06 166.659L163.038 163.008L161.469 162.588L161.824 161.262L163.393 161.683L164.009 159.384L165.686 159.833L165.07 162.132L167.436 162.766L167.081 164.091L164.715 163.457L163.849 166.689C163.728 167.14 163.715 167.475 163.811 167.694C163.919 167.906 164.162 168.063 164.54 168.165C164.739 168.218 164.951 168.255 165.177 168.277C165.403 168.299 165.61 168.302 165.798 168.284L165.581 169.69C165.25 169.698 164.945 169.684 164.665 169.647C164.385 169.611 164.105 169.555 163.826 169.48ZM175.655 172.65C174.582 172.363 173.713 171.912 173.046 171.299C172.379 170.685 171.94 169.945 171.729 169.076C171.526 168.21 171.566 167.25 171.848 166.195C172.133 165.131 172.579 164.279 173.185 163.64C173.803 162.994 174.554 162.572 175.438 162.374C176.322 162.176 177.3 162.221 178.373 162.508C179.599 162.837 180.614 163.394 181.418 164.179L180.627 165.562C179.848 164.792 178.98 164.28 178.025 164.024C177.313 163.833 176.656 163.811 176.056 163.96C175.458 164.099 174.948 164.397 174.526 164.854C174.104 165.311 173.793 165.914 173.593 166.662C173.395 167.402 173.363 168.079 173.497 168.695C173.634 169.302 173.926 169.819 174.371 170.248C174.819 170.668 175.399 170.973 176.112 171.164C177.04 171.412 178.048 171.402 179.134 171.133L179.128 172.726C178.039 173.004 176.881 172.979 175.655 172.65ZM182.16 174.393C181.457 174.205 180.953 173.867 180.649 173.38C180.356 172.886 180.298 172.31 180.474 171.651C180.694 170.831 181.183 170.286 181.942 170.016C182.7 169.745 183.67 169.768 184.851 170.085L185.838 170.349C185.93 170.007 185.955 169.733 185.913 169.529C185.883 169.318 185.773 169.148 185.585 169.021C185.406 168.895 185.132 168.783 184.762 168.684C184.312 168.563 183.831 168.483 183.32 168.443C182.818 168.405 182.331 168.419 181.859 168.486L181.994 167.116C182.5 167.068 183.045 167.069 183.631 167.12C184.216 167.171 184.789 167.271 185.347 167.421C186.06 167.611 186.596 167.847 186.955 168.127C187.324 168.409 187.544 168.777 187.616 169.231C187.688 169.685 187.634 170.246 187.455 170.913L186.267 175.349L184.685 174.925L184.889 174.11L184.862 174.102C184.543 174.317 184.13 174.452 183.622 174.51C183.116 174.558 182.629 174.519 182.16 174.393ZM183.103 173.254C183.437 173.344 183.759 173.367 184.07 173.325C184.383 173.274 184.649 173.166 184.866 173.002C185.084 172.838 185.228 172.626 185.298 172.364L185.527 171.512L184.783 171.313C184.007 171.105 183.394 171.052 182.941 171.153C182.501 171.247 182.225 171.502 182.114 171.917C182.031 172.223 182.074 172.496 182.242 172.734C182.411 172.972 182.697 173.146 183.103 173.254ZM188.047 175.826L189.931 168.794L191.527 169.221L191.185 170.55L191.212 170.557C191.529 170.314 191.874 170.126 192.247 169.994C192.632 169.856 193.033 169.784 193.45 169.78C193.869 169.767 194.29 169.817 194.714 169.93L194.33 171.364C193.762 171.212 193.215 171.181 192.688 171.272C192.17 171.365 191.722 171.559 191.343 171.853C190.976 172.142 190.732 172.511 190.612 172.962L189.724 176.275L188.047 175.826ZM196.059 178.117C195.121 177.866 194.477 177.35 194.125 176.57C193.774 175.79 193.753 174.823 194.062 173.669C194.371 172.515 194.873 171.688 195.567 171.188C196.262 170.688 197.078 170.564 198.015 170.815C198.484 170.941 198.886 171.135 199.221 171.399C199.557 171.663 199.813 171.987 199.989 172.373L200.03 172.384L201.012 168.719L202.648 169.158L200.003 179.029L198.448 178.613L198.642 177.78L198.615 177.773C198.271 178.01 197.874 178.159 197.422 178.222C196.982 178.278 196.528 178.243 196.059 178.117ZM196.854 176.881C197.205 176.975 197.536 176.986 197.845 176.915C198.163 176.845 198.437 176.706 198.667 176.497C198.897 176.288 199.054 176.026 199.139 175.71L199.479 174.439C199.566 174.115 199.561 173.809 199.464 173.522C199.369 173.226 199.206 172.97 198.974 172.753C198.743 172.536 198.446 172.38 198.086 172.283C197.518 172.131 197.023 172.211 196.601 172.523C196.188 172.838 195.883 173.365 195.685 174.104C195.487 174.843 195.488 175.452 195.688 175.931C195.897 176.412 196.286 176.729 196.854 176.881ZM205.851 180.596L208.496 170.725L210.295 171.206L212.818 179.477L212.845 179.485L214.744 172.399L216.421 172.848L213.776 182.72L211.977 182.238L209.467 173.97L209.44 173.963L207.542 181.049L205.851 180.596ZM218.892 184.236C217.756 183.931 216.962 183.38 216.509 182.582C216.068 181.778 216.003 180.794 216.314 179.631C216.626 178.468 217.173 177.654 217.955 177.187C218.748 176.713 219.713 176.629 220.849 176.933C221.985 177.238 222.778 177.793 223.229 178.6C223.682 179.398 223.752 180.378 223.441 181.541C223.129 182.704 222.577 183.522 221.783 183.996C220.992 184.46 220.028 184.54 218.892 184.236ZM219.247 182.91C219.87 183.077 220.395 183.01 220.823 182.709C221.254 182.4 221.572 181.862 221.777 181.095C221.983 180.329 221.975 179.709 221.754 179.234C221.536 178.75 221.116 178.425 220.494 178.258C219.881 178.094 219.354 178.166 218.915 178.473C218.486 178.774 218.169 179.307 217.964 180.073C217.759 180.84 217.765 181.465 217.983 181.948C218.213 182.425 218.634 182.746 219.247 182.91ZM223.814 185.409L224.325 183.503L226.245 184.017L225.734 185.924L223.814 185.409Z" fill="#B9BEBD"/>
<path d="M269.789 310.376L272.434 300.504L279.034 302.273L278.642 303.733L273.733 302.418L273.052 304.96L277.691 306.203L277.306 307.636L272.668 306.394L271.871 309.369L276.78 310.684L276.388 312.144L269.789 310.376ZM277.472 312.435L280.653 309.49L279.383 305.41L281.223 305.903L282.007 308.925L282.034 308.932L284.225 306.707L286.064 307.2L282.925 310.098L284.207 314.239L282.367 313.747L281.567 310.677L281.54 310.669L279.325 312.931L277.472 312.435ZM291.436 308.495C292.374 308.746 293.018 309.262 293.37 310.042C293.721 310.822 293.742 311.789 293.433 312.943C293.124 314.097 292.622 314.924 291.928 315.424C291.233 315.924 290.417 316.048 289.48 315.797C289.02 315.674 288.618 315.479 288.274 315.213C287.941 314.94 287.685 314.616 287.506 314.239L287.479 314.232L286.497 317.897L284.833 317.451L287.478 307.579L289.061 308.003L288.853 308.832L288.88 308.839C289.235 308.596 289.633 308.446 290.073 308.39C290.513 308.334 290.968 308.369 291.436 308.495ZM290.641 309.731C290.299 309.639 289.968 309.628 289.65 309.697C289.332 309.767 289.058 309.906 288.828 310.115C288.61 310.317 288.457 310.581 288.37 310.905L288.029 312.176C287.945 312.492 287.945 312.796 288.031 313.09C288.126 313.386 288.293 313.643 288.534 313.863C288.775 314.082 289.067 314.237 289.409 314.329C289.986 314.484 290.481 314.404 290.894 314.089C291.307 313.774 291.612 313.248 291.81 312.508C292.008 311.769 292.007 311.16 291.807 310.681C291.607 310.202 291.218 309.886 290.641 309.731ZM293.813 316.813L294.324 314.907L296.245 315.421L295.734 317.328L293.813 316.813Z" fill="#B9BEBD"/>
<path d="M263.049 351.683C261.921 351.381 261.178 350.8 260.82 349.942C260.462 349.085 260.48 347.918 260.876 346.442C261.271 344.966 261.839 343.946 262.578 343.382C263.317 342.818 264.251 342.687 265.379 342.99C266.507 343.292 267.246 343.871 267.597 344.727C267.955 345.585 267.936 346.752 267.541 348.228C267.145 349.703 266.578 350.723 265.839 351.287C265.107 351.853 264.178 351.985 263.049 351.683ZM263.394 350.396C264.036 350.568 264.569 350.446 264.996 350.03C265.422 349.614 265.776 348.881 266.057 347.83C266.341 346.771 266.401 345.959 266.238 345.394C266.077 344.821 265.675 344.448 265.034 344.276C264.393 344.104 263.855 344.225 263.421 344.639C262.997 345.047 262.643 345.781 262.36 346.839C262.078 347.89 262.018 348.702 262.179 349.275C262.348 349.851 262.753 350.224 263.394 350.396ZM272.827 344.985C273.523 345.172 274.077 345.453 274.49 345.828C274.902 346.204 275.164 346.663 275.276 347.207C275.394 347.752 275.359 348.38 275.168 349.091C274.882 350.157 274.424 351.033 273.794 351.717C273.173 352.395 272.419 352.86 271.532 353.111C270.645 353.362 269.656 353.374 268.565 353.148L268.624 351.909C269.596 352.112 270.432 352.116 271.13 351.922C271.83 351.721 272.416 351.31 272.888 350.692L272.868 350.674C272.547 350.761 272.216 350.805 271.876 350.805C271.544 350.808 271.193 350.759 270.822 350.66C269.964 350.43 269.355 349.998 268.996 349.363C268.643 348.73 268.586 347.969 268.824 347.081C268.99 346.462 269.259 345.967 269.632 345.595C270.005 345.223 270.462 344.985 271.004 344.882C271.547 344.771 272.155 344.805 272.827 344.985ZM272.495 346.225C271.923 346.072 271.442 346.105 271.052 346.323C270.672 346.536 270.411 346.909 270.268 347.443C270.125 347.976 270.156 348.431 270.361 348.809C270.576 349.182 270.954 349.44 271.495 349.585C271.881 349.689 272.23 349.716 272.542 349.667C272.855 349.61 273.118 349.478 273.331 349.27C273.554 349.056 273.711 348.779 273.802 348.439C273.883 348.138 273.897 347.839 273.844 347.544C273.798 347.25 273.666 346.986 273.446 346.754C273.237 346.515 272.92 346.339 272.495 346.225ZM274.259 355.059L280.902 346.776L282.316 347.155L275.674 355.438L274.259 355.059ZM284.085 357.195L285.917 350.356L285.894 350.35L282.458 351.305L282.379 349.93L286.352 348.734L287.824 349.128L285.557 357.589L284.085 357.195ZM291.533 359.191L293.366 352.352L293.342 352.346L289.906 353.301L289.827 351.926L293.8 350.729L295.272 351.124L293.005 359.585L291.533 359.191Z" fill="white"/>
<path d="M86.5659 304.27L88.8331 295.809L91.3832 296.492C92.6273 296.825 93.4814 297.27 93.9456 297.825C94.4175 298.382 94.5364 299.097 94.3025 299.97C94.0726 300.828 93.6226 301.395 92.9523 301.671C92.2898 301.949 91.3944 301.936 90.2662 301.634L88.1103 301.056L88.4085 299.944L90.3789 300.472C91.1671 300.683 91.7641 300.727 92.1698 300.604C92.5853 300.475 92.8593 300.163 92.9918 299.669C93.1243 299.174 93.0419 298.771 92.7444 298.459C92.4567 298.142 91.9187 297.878 91.1306 297.667L89.7976 297.31L87.8409 304.612L86.5659 304.27ZM91.5153 305.596L88.716 300.697L90.3271 301.129L93.1728 306.041L91.5153 305.596ZM94.5574 306.412L96.8247 297.95L102.388 299.441L102.084 300.577L97.7953 299.428L97.1679 301.769L101.225 302.856L100.927 303.969L96.8698 302.882L96.1368 305.617L100.426 306.766L100.121 307.902L94.5574 306.412ZM107.108 309.775L109.376 301.313L110.651 301.655L108.383 310.116L107.108 309.775ZM101.892 308.377L104.16 299.915L105.435 300.257L103.167 308.719L101.892 308.377ZM103.561 304.7L103.872 303.54L109.088 304.938L108.777 306.097L103.561 304.7ZM109.525 310.422L114.875 302.787L116.602 303.249L117.407 312.534L116.004 312.158L115.453 304.109L115.429 304.103L110.927 310.798L109.525 310.422ZM111.693 308.73L112.003 307.57L116.698 308.828L116.387 309.987L111.693 308.73ZM118.543 312.839L120.811 304.377L122.201 304.75L124.527 312.206L124.55 312.212L126.258 305.837L127.533 306.178L125.266 314.64L123.875 314.267L121.55 306.811L121.527 306.805L119.818 313.18L118.543 312.839ZM130.485 316.038L132.753 307.577L135.303 308.26C136.547 308.594 137.401 309.038 137.865 309.593C138.337 310.15 138.456 310.865 138.222 311.738C137.992 312.596 137.542 313.163 136.872 313.439C136.209 313.717 135.314 313.705 134.186 313.402L132.03 312.825L132.328 311.712L134.298 312.24C135.087 312.451 135.684 312.495 136.089 312.372C136.505 312.243 136.779 311.931 136.911 311.437C137.044 310.942 136.961 310.539 136.664 310.228C136.376 309.91 135.838 309.646 135.05 309.435L133.717 309.078L131.76 316.38L130.485 316.038ZM135.435 317.365L132.635 312.465L134.247 312.897L137.092 317.809L135.435 317.365ZM137.642 317.956L142.993 310.321L144.72 310.784L145.524 320.068L144.122 319.692L143.57 311.643L143.547 311.637L139.045 318.332L137.642 317.956ZM139.81 316.264L140.121 315.104L144.815 316.362L144.505 317.521L139.81 316.264ZM146.765 320.401L149.032 311.939L150.354 312.293L148.087 320.755L146.765 320.401ZM155.375 322.707L157.642 314.246L158.917 314.588L156.65 323.049L155.375 322.707ZM150.159 321.31L152.426 312.848L153.701 313.19L151.434 321.651L150.159 321.31ZM151.827 317.632L152.138 316.473L157.354 317.871L157.043 319.03L151.827 317.632ZM157.791 323.355L163.141 315.72L164.868 316.182L165.673 325.467L164.27 325.091L163.719 317.042L163.696 317.036L159.193 323.731L157.791 323.355ZM159.959 321.662L160.269 320.503L164.964 321.761L164.653 322.92L159.959 321.662ZM166.809 325.771L169.077 317.31L170.468 317.683L172.793 325.139L172.816 325.145L174.524 318.77L175.8 319.111L173.532 327.573L172.141 327.2L169.816 319.744L169.793 319.738L168.084 326.113L166.809 325.771Z" fill="white"/>
<path fill-rule="evenodd" clip-rule="evenodd" d="M167.975 98.0668C172.143 95.889 175.421 92.0409 176.734 87.1404C178.047 82.2398 177.132 77.2683 174.612 73.2984C178.343 71.3494 182.788 70.7391 187.175 71.9145C196.462 74.403 201.974 83.9494 199.485 93.2366C196.997 102.524 187.45 108.035 178.163 105.547C173.777 104.371 170.232 101.62 167.975 98.0668ZM167.975 98.0668C164.244 100.016 159.798 100.626 155.412 99.4507C146.125 96.9622 140.613 87.4158 143.102 78.1286C145.59 68.8414 155.136 63.3298 164.424 65.8183C168.81 66.9937 172.355 69.7451 174.612 73.2984C170.444 75.4761 167.166 79.3243 165.853 84.2248C164.54 89.1253 165.454 94.0968 167.975 98.0668Z" fill="white"/>
<path fill-rule="evenodd" clip-rule="evenodd" d="M580.976 177.783C581.912 177.432 582.954 177.906 583.305 178.841C585.172 183.822 586.825 191.906 585.742 200.127C584.651 208.404 580.759 216.927 571.447 222.386C570.585 222.891 569.477 222.602 568.971 221.74C568.466 220.878 568.755 219.77 569.617 219.265C577.739 214.504 581.172 207.115 582.155 199.654C583.146 192.137 581.621 184.656 579.918 180.111C579.567 179.176 580.041 178.133 580.976 177.783ZM571.686 182.161C572.621 181.809 573.664 182.281 574.017 183.216C575.337 186.723 576.506 192.398 575.746 198.182C574.979 204.023 572.217 210.082 565.59 213.952C564.727 214.456 563.619 214.165 563.116 213.303C562.612 212.44 562.903 211.332 563.765 210.828C569.2 207.654 571.5 202.733 572.159 197.711C572.827 192.632 571.788 187.562 570.631 184.491C570.279 183.557 570.751 182.513 571.686 182.161ZM563.982 187.592C564.915 187.236 565.961 187.703 566.317 188.636C567.043 190.535 567.685 193.584 567.278 196.712C566.864 199.9 565.332 203.271 561.631 205.408C560.766 205.907 559.659 205.611 559.16 204.746C558.66 203.881 558.957 202.774 559.822 202.275C562.323 200.831 563.384 198.602 563.691 196.246C564.005 193.83 563.497 191.39 562.938 189.927C562.581 188.994 563.049 187.949 563.982 187.592Z" fill="white"/>
<path d="M116.579 208.515L121.258 191.051L121.196 191.035L113.099 194.795L114.458 189.726L122.625 185.951L127.076 187.144L121.03 209.708L116.579 208.515ZM131.827 212.932C130.096 212.469 128.785 211.797 127.895 210.918C127.024 210.044 126.535 208.864 126.425 207.377C126.336 205.895 126.595 204.021 127.203 201.755C128.058 198.561 129.169 196.064 130.534 194.266C131.905 192.447 133.589 191.274 135.585 190.749C137.581 190.224 139.944 190.305 142.675 190.992L141.648 194.825C140.412 194.494 139.244 194.402 138.144 194.549C137.05 194.675 136.111 195.009 135.325 195.549C134.54 196.09 133.979 196.823 133.643 197.749L133.766 197.782C134.426 197.628 135.03 197.558 135.579 197.572C136.127 197.586 136.7 197.674 137.297 197.834C139.276 198.364 140.565 199.361 141.167 200.825C141.795 202.274 141.769 204.266 141.09 206.801C140.322 209.665 139.214 211.577 137.764 212.535C136.341 213.479 134.362 213.612 131.827 212.932ZM132.852 209.232C133.779 209.48 134.548 209.332 135.157 208.789C135.772 208.225 136.267 207.242 136.643 205.841C137.018 204.44 137.078 203.352 136.822 202.576C136.571 201.78 135.982 201.258 135.055 201.01C134.128 200.761 133.357 200.919 132.742 201.483C132.132 202.026 131.64 202.999 131.264 204.4C130.889 205.801 130.826 206.9 131.077 207.696C131.333 208.471 131.925 208.983 132.852 209.232ZM149.982 206.997C149.323 206.82 148.85 206.484 148.563 205.987C148.276 205.491 148.219 204.923 148.39 204.284C148.566 203.625 148.9 203.162 149.391 202.896C149.888 202.61 150.466 202.555 151.125 202.731C151.784 202.908 152.257 203.245 152.544 203.741C152.836 204.217 152.894 204.785 152.717 205.444C152.546 206.083 152.212 206.545 151.716 206.832C151.219 207.119 150.641 207.174 149.982 206.997ZM147.282 217.073C145.572 216.615 144.303 215.911 143.475 214.96C142.653 213.989 142.225 212.66 142.192 210.972C142.158 209.285 142.489 207.143 143.185 204.546L143.682 202.692C144.383 200.075 145.167 198.054 146.035 196.63C146.908 195.185 147.94 194.258 149.132 193.849C150.329 193.419 151.783 193.433 153.494 193.891C155.183 194.344 156.439 195.056 157.261 196.027C158.109 196.983 158.55 198.305 158.584 199.993C158.623 201.66 158.292 203.802 157.591 206.419L157.094 208.273C156.398 210.87 155.614 212.89 154.741 214.335C153.868 215.779 152.823 216.714 151.604 217.138C150.413 217.548 148.972 217.526 147.282 217.073ZM148.309 213.241C149.01 213.428 149.585 213.384 150.034 213.107C150.484 212.83 150.906 212.203 151.3 211.226C151.721 210.235 152.196 208.75 152.726 206.771L153.057 205.535C153.587 203.557 153.915 202.044 154.042 200.995C154.194 199.932 154.145 199.168 153.894 198.703C153.643 198.238 153.167 197.912 152.467 197.724C151.787 197.542 151.212 197.587 150.741 197.858C150.292 198.135 149.856 198.769 149.436 199.761C149.042 200.738 148.58 202.215 148.05 204.193L147.719 205.43C147.188 207.408 146.847 208.929 146.695 209.992C146.568 211.041 146.631 211.797 146.882 212.262C147.153 212.732 147.629 213.058 148.309 213.241ZM157.632 215.54C159.436 214.411 160.98 213.389 162.263 212.474C163.552 211.538 164.622 210.677 165.473 209.889C166.33 209.081 166.998 208.321 167.476 207.609C167.953 206.898 168.286 206.192 168.474 205.492C168.766 204.4 168.745 203.532 168.409 202.89C168.073 202.248 167.4 201.792 166.39 201.521C165.072 201.168 163.414 201.132 161.417 201.414L162.493 197.396C164.221 197.13 166.198 197.295 168.423 197.892C170.669 198.493 172.174 199.471 172.938 200.824C173.707 202.157 173.788 203.956 173.181 206.223C172.927 207.171 172.533 208.103 172 209.021C171.494 209.923 170.834 210.817 170.023 211.704C169.211 212.591 168.257 213.473 167.16 214.35C166.085 215.232 164.846 216.104 163.445 216.965L163.412 217.089L169.995 218.853L169.002 222.562L156.638 219.249L157.632 215.54ZM211.801 223.561C211.142 223.385 210.669 223.048 210.382 222.552C210.096 222.055 210.038 221.488 210.209 220.849C210.386 220.189 210.72 219.727 211.21 219.461C211.707 219.174 212.285 219.119 212.944 219.296C213.604 219.473 214.077 219.809 214.363 220.306C214.655 220.781 214.713 221.349 214.536 222.008C214.365 222.647 214.031 223.11 213.535 223.396C213.039 223.683 212.461 223.738 211.801 223.561ZM209.101 233.638C207.391 233.18 206.122 232.475 205.295 231.525C204.473 230.553 204.045 229.224 204.011 227.537C203.977 225.849 204.308 223.707 205.004 221.111L205.501 219.256C206.202 216.639 206.986 214.618 207.854 213.194C208.727 211.75 209.759 210.823 210.951 210.413C212.149 209.983 213.603 209.997 215.313 210.456C217.003 210.908 218.258 211.62 219.08 212.592C219.929 213.548 220.37 214.869 220.403 216.557C220.442 218.224 220.111 220.366 219.41 222.983L218.913 224.838C218.218 227.434 217.433 229.454 216.56 230.899C215.687 232.344 214.642 233.278 213.424 233.703C212.232 234.112 210.791 234.091 209.101 233.638ZM210.128 229.805C210.829 229.993 211.404 229.948 211.854 229.671C212.303 229.394 212.725 228.767 213.12 227.791C213.54 226.799 214.015 225.314 214.545 223.336L214.876 222.099C215.406 220.121 215.735 218.608 215.861 217.56C216.013 216.496 215.964 215.732 215.713 215.267C215.462 214.802 214.987 214.476 214.286 214.288C213.606 214.106 213.031 214.151 212.56 214.422C212.111 214.7 211.676 215.334 211.255 216.326C210.861 217.302 210.399 218.78 209.869 220.758L209.538 221.994C209.008 223.972 208.666 225.493 208.514 226.557C208.388 227.605 208.45 228.362 208.701 228.826C208.972 229.297 209.448 229.623 210.128 229.805ZM230.768 214.597C232.519 215.066 233.83 215.738 234.7 216.611C235.571 217.485 236.05 218.662 236.139 220.144C236.249 221.631 236 223.508 235.392 225.775C234.542 228.948 233.431 231.444 232.06 233.263C230.69 235.083 229.006 236.255 227.01 236.78C225.035 237.311 222.671 237.23 219.92 236.537L220.947 232.704C222.204 233.041 223.369 233.143 224.442 233.011C225.542 232.864 226.484 232.52 227.27 231.98C228.06 231.419 228.621 230.685 228.952 229.78L228.828 229.747C228.169 229.902 227.565 229.972 227.016 229.957C226.468 229.943 225.895 229.856 225.298 229.695C223.319 229.165 222.016 228.176 221.389 226.727C220.787 225.262 220.826 223.263 221.505 220.728C222.273 217.864 223.368 215.96 224.792 215.016C226.241 214.057 228.233 213.918 230.768 214.597ZM229.743 218.298C228.816 218.049 228.045 218.207 227.43 218.771C226.82 219.315 226.328 220.287 225.952 221.688C225.577 223.089 225.514 224.188 225.765 224.984C226.021 225.759 226.613 226.271 227.54 226.52C228.467 226.768 229.236 226.621 229.845 226.077C230.46 225.513 230.955 224.53 231.331 223.129C231.706 221.728 231.766 220.64 231.51 219.864C231.259 219.068 230.67 218.546 229.743 218.298ZM240.217 241.644L244.897 224.18L244.835 224.164L236.738 227.924L238.096 222.855L246.263 219.08L250.714 220.273L244.668 242.837L240.217 241.644ZM255.672 245.785L260.352 228.321L260.29 228.305L252.193 232.065L253.551 226.996L261.718 223.221L266.169 224.414L260.123 246.978L255.672 245.785ZM296.725 252.81C298.529 251.681 300.073 250.659 301.356 249.744C302.645 248.808 303.715 247.947 304.567 247.159C305.424 246.351 306.091 245.591 306.569 244.879C307.047 244.168 307.379 243.462 307.567 242.762C307.86 241.669 307.838 240.802 307.502 240.16C307.166 239.518 306.493 239.062 305.484 238.791C304.165 238.438 302.507 238.402 300.51 238.684L301.587 234.666C303.314 234.4 305.291 234.565 307.516 235.162C309.762 235.763 311.267 236.741 312.031 238.094C312.801 239.426 312.882 241.226 312.274 243.493C312.02 244.441 311.627 245.373 311.094 246.291C310.587 247.193 309.928 248.087 309.116 248.974C308.304 249.861 307.35 250.743 306.254 251.619C305.178 252.502 303.939 253.374 302.538 254.235L302.505 254.359L309.089 256.123L308.095 259.832L295.731 256.519L296.725 252.81ZM319.985 252.549C319.326 252.372 318.853 252.036 318.566 251.539C318.279 251.043 318.222 250.475 318.393 249.837C318.569 249.177 318.903 248.714 319.394 248.448C319.891 248.162 320.468 248.107 321.128 248.284C321.787 248.46 322.26 248.797 322.547 249.293C322.839 249.769 322.897 250.337 322.72 250.996C322.549 251.635 322.215 252.098 321.719 252.384C321.222 252.671 320.644 252.726 319.985 252.549ZM317.285 262.626C315.575 262.167 314.306 261.463 313.478 260.512C312.656 259.541 312.228 258.212 312.195 256.524C312.161 254.837 312.492 252.695 313.188 250.098L313.685 248.244C314.386 245.627 315.17 243.606 316.038 242.182C316.911 240.738 317.943 239.811 319.135 239.401C320.332 238.971 321.786 238.985 323.497 239.443C325.186 239.896 326.442 240.608 327.264 241.579C328.112 242.535 328.553 243.857 328.587 245.545C328.626 247.212 328.295 249.354 327.594 251.971L327.097 253.825C326.401 256.422 325.617 258.442 324.744 259.887C323.871 261.331 322.825 262.266 321.607 262.691C320.416 263.1 318.975 263.078 317.285 262.626ZM318.312 258.793C319.013 258.981 319.588 258.936 320.037 258.659C320.487 258.382 320.909 257.755 321.303 256.778C321.724 255.787 322.199 254.302 322.729 252.324L323.06 251.087C323.59 249.109 323.918 247.596 324.045 246.547C324.197 245.484 324.148 244.72 323.897 244.255C323.646 243.79 323.17 243.464 322.47 243.276C321.79 243.094 321.214 243.139 320.744 243.41C320.294 243.687 319.859 244.322 319.439 245.313C319.045 246.29 318.583 247.767 318.053 249.745L317.721 250.982C317.191 252.96 316.85 254.481 316.698 255.544C316.571 256.593 316.634 257.349 316.885 257.814C317.156 258.284 317.632 258.611 318.312 258.793ZM332.946 266.491L337.626 249.027L337.564 249.01L329.467 252.771L330.825 247.702L338.992 243.927L343.443 245.119L337.397 267.683L332.946 266.491ZM354.406 247.726C356.158 248.195 357.469 248.866 358.339 249.74C359.209 250.614 359.689 251.791 359.778 253.273C359.887 254.76 359.638 256.637 359.031 258.903C358.18 262.077 357.07 264.573 355.699 266.392C354.328 268.211 352.645 269.384 350.649 269.909C348.673 270.44 346.31 270.359 343.558 269.666L344.585 265.833C345.842 266.17 347.007 266.272 348.081 266.14C349.18 265.993 350.123 265.649 350.908 265.109C351.699 264.547 352.26 263.814 352.591 262.909L352.467 262.876C351.807 263.03 351.203 263.1 350.655 263.086C350.107 263.072 349.534 262.984 348.936 262.824C346.958 262.294 345.655 261.305 345.027 259.855C344.426 258.391 344.465 256.392 345.144 253.857C345.911 250.993 347.007 249.089 348.43 248.145C349.88 247.186 351.872 247.046 354.406 247.726ZM353.381 251.426C352.454 251.178 351.683 251.336 351.068 251.9C350.459 252.443 349.966 253.416 349.591 254.817C349.215 256.218 349.153 257.317 349.403 258.113C349.659 258.888 350.251 259.4 351.178 259.648C352.106 259.897 352.874 259.749 353.483 259.206C354.098 258.642 354.594 257.659 354.969 256.258C355.345 254.857 355.404 253.768 355.148 252.993C354.898 252.197 354.309 251.675 353.381 251.426ZM389.454 277.656C391.258 276.528 392.802 275.506 394.085 274.591C395.374 273.655 396.444 272.793 397.296 272.006C398.153 271.197 398.82 270.437 399.298 269.726C399.775 269.015 400.108 268.309 400.296 267.608C400.589 266.516 400.567 265.649 400.231 265.007C399.895 264.365 399.222 263.908 398.213 263.638C396.894 263.284 395.236 263.249 393.239 263.531L394.315 259.513C396.043 259.247 398.02 259.412 400.245 260.008C402.491 260.61 403.996 261.587 404.76 262.941C405.529 264.273 405.61 266.073 405.003 268.339C404.749 269.287 404.356 270.22 403.823 271.137C403.316 272.04 402.657 272.934 401.845 273.821C401.033 274.708 400.079 275.589 398.983 276.466C397.907 277.348 396.668 278.22 395.267 279.082L395.234 279.205L401.818 280.969L400.824 284.678L388.46 281.366L389.454 277.656ZM412.714 277.396C412.054 277.219 411.581 276.882 411.295 276.386C411.008 275.89 410.95 275.322 411.122 274.683C411.298 274.024 411.632 273.561 412.123 273.295C412.619 273.008 413.197 272.954 413.857 273.13C414.516 273.307 414.989 273.643 415.276 274.14C415.568 274.616 415.626 275.183 415.449 275.843C415.278 276.482 414.944 276.944 414.448 277.231C413.951 277.517 413.373 277.572 412.714 277.396ZM410.014 287.472C408.303 287.014 407.035 286.31 406.207 285.359C405.385 284.388 404.957 283.058 404.924 281.371C404.89 279.683 405.221 277.541 405.917 274.945L406.413 273.09C407.115 270.473 407.899 268.453 408.766 267.029C409.639 265.584 410.672 264.657 411.864 264.248C413.061 263.818 414.515 263.832 416.225 264.29C417.915 264.743 419.171 265.455 419.993 266.426C420.841 267.382 421.282 268.704 421.316 270.391C421.355 272.058 421.024 274.2 420.323 276.817L419.826 278.672C419.13 281.268 418.346 283.289 417.473 284.733C416.6 286.178 415.554 287.113 414.336 287.537C413.144 287.947 411.704 287.925 410.014 287.472ZM411.041 283.639C411.741 283.827 412.317 283.783 412.766 283.505C413.216 283.228 413.638 282.602 414.032 281.625C414.452 280.633 414.928 279.148 415.458 277.17L415.789 275.934C416.319 273.956 416.647 272.442 416.774 271.394C416.926 270.33 416.877 269.566 416.626 269.102C416.375 268.637 415.899 268.311 415.198 268.123C414.518 267.941 413.943 267.985 413.473 268.257C413.023 268.534 412.588 269.168 412.168 270.16C411.774 271.136 411.312 272.614 410.782 274.592L410.45 275.828C409.92 277.807 409.579 279.328 409.427 280.391C409.3 281.439 409.363 282.196 409.614 282.661C409.885 283.131 410.361 283.457 411.041 283.639ZM420.363 285.939C422.168 284.81 423.711 283.788 424.995 282.873C426.283 281.937 427.354 281.075 428.205 280.288C429.062 279.479 429.73 278.72 430.207 278.008C430.685 277.297 431.018 276.591 431.206 275.89C431.498 274.798 431.477 273.931 431.141 273.289C430.805 272.647 430.132 272.19 429.122 271.92C427.803 271.567 426.145 271.531 424.148 271.813L425.225 267.795C426.953 267.529 428.929 267.694 431.155 268.29C433.401 268.892 434.906 269.87 435.67 271.223C436.439 272.555 436.52 274.355 435.913 276.622C435.659 277.57 435.265 278.502 434.732 279.419C434.226 280.322 433.566 281.216 432.754 282.103C431.943 282.99 430.988 283.872 429.892 284.748C428.816 285.631 427.578 286.502 426.177 287.364L426.144 287.487L432.727 289.252L431.733 292.961L419.37 289.648L420.363 285.939ZM441.13 295.479L445.809 278.015L445.748 277.998L437.65 281.758L439.009 276.689L447.176 272.914L451.627 274.107L445.581 296.671L441.13 295.479Z" fill="white"/>
<path d="M477.815 387.257C478.044 386.403 478.922 385.896 479.776 386.125L492.92 389.647C493.774 389.876 494.28 390.754 494.051 391.608L491.413 401.456C491.253 402.052 490.764 402.503 490.157 402.615L482.747 403.984C482.273 404.072 481.784 403.941 481.417 403.628L475.684 398.737C475.214 398.337 475.017 397.701 475.176 397.105L477.815 387.257Z" fill="white"/>
<path d="M502.556 393.887C502.785 393.033 503.663 392.526 504.517 392.755L508.383 393.79C509.237 394.019 509.743 394.897 509.515 395.751L508.686 398.844C508.457 399.698 507.579 400.204 506.725 399.976L502.86 398.94C502.006 398.711 501.499 397.833 501.728 396.979L502.556 393.887Z" fill="white"/>
<path d="M518.019 398.03C518.248 397.176 519.126 396.669 519.98 396.898L533.124 400.42C533.978 400.649 534.485 401.526 534.256 402.38L531.77 411.658C531.541 412.512 530.663 413.019 529.809 412.79L516.665 409.268C515.811 409.04 515.305 408.162 515.533 407.308L518.019 398.03Z" fill="white"/>
<path d="M473.465 403.494C473.693 402.64 474.571 402.133 475.425 402.362L488.569 405.883C489.423 406.112 489.93 406.99 489.701 407.844L487.215 417.122C486.986 417.976 486.108 418.483 485.254 418.254L472.111 414.732C471.257 414.503 470.75 413.625 470.979 412.771L473.465 403.494Z" fill="white"/>
<path d="M495.224 402.695C495.453 401.841 496.331 401.334 497.185 401.563L510.328 405.084C511.182 405.313 511.689 406.191 511.46 407.045L505.66 428.694C505.431 429.548 504.553 430.054 503.699 429.826L490.555 426.304C489.701 426.075 489.195 425.197 489.423 424.343L495.224 402.695Z" fill="white"/>
<path d="M513.669 414.266C513.898 413.412 514.776 412.905 515.63 413.134L528.773 416.656C529.627 416.885 530.134 417.763 529.905 418.617L527.419 427.895C527.19 428.749 526.313 429.255 525.459 429.027L512.315 425.505C511.461 425.276 510.954 424.398 511.183 423.544L513.669 414.266Z" fill="white"/>
<path d="M469.114 419.73C469.343 418.876 470.221 418.369 471.075 418.598L484.218 422.12C485.072 422.349 485.579 423.226 485.35 424.08L482.864 433.358C482.636 434.212 481.758 434.719 480.904 434.49L467.76 430.968C466.906 430.74 466.399 429.862 466.628 429.008L469.114 419.73Z" fill="white"/>
<path d="M492.198 432.544C492.427 431.69 493.305 431.184 494.159 431.412L498.024 432.448C498.878 432.677 499.385 433.555 499.156 434.409L498.328 437.502C498.099 438.356 497.221 438.862 496.367 438.634L492.501 437.598C491.647 437.369 491.14 436.491 491.369 435.637L492.198 432.544Z" fill="white"/>
<path d="M509.471 429.933C509.631 429.336 510.119 428.885 510.727 428.773L518.137 427.404C518.611 427.317 519.1 427.447 519.467 427.76L525.2 432.651C525.67 433.051 525.867 433.687 525.707 434.283L523.069 444.131C522.84 444.985 521.962 445.492 521.108 445.263L507.964 441.741C507.11 441.512 506.604 440.634 506.832 439.78L509.471 429.933Z" fill="white"/>
</g>
<defs>
<filter id="filter0_d_1_61" x="0.184082" y="0.791946" width="650.263" height="506.643" filterUnits="userSpaceOnUse" color-interpolation-filters="sRGB">
<feFlood flood-opacity="0" result="BackgroundImageFix"/>
<feColorMatrix in="SourceAlpha" type="matrix" values="0 0 0 0 0 0 0 0 0 0 0 0 0 0 0 0 0 0 127 0" result="hardAlpha"/>
<feOffset dy="4"/>
<feGaussianBlur stdDeviation="10"/>
<feComposite in2="hardAlpha" operator="out"/>
<feColorMatrix type="matrix" values="0 0 0 0 0 0 0 0 0 0 0 0 0 0 0 0 0 0 0.25 0"/>
<feBlend mode="normal" in2="BackgroundImageFix" result="effect1_dropShadow_1_61"/>
<feBlend mode="normal" in="SourceGraphic" in2="effect1_dropShadow_1_61" result="shape"/>
</filter>
<filter id="filter1_b_1_61" x="-54.8159" y="-58.2081" width="760.263" height="616.643" filterUnits="userSpaceOnUse" color-interpolation-filters="sRGB">
<feFlood flood-opacity="0" result="BackgroundImageFix"/>
<feGaussianBlur in="BackgroundImageFix" stdDeviation="37.5"/>
<feComposite in2="SourceAlpha" operator="in" result="effect1_backgroundBlur_1_61"/>
<feBlend mode="normal" in="SourceGraphic" in2="effect1_backgroundBlur_1_61" result="shape"/>
</filter>
<linearGradient id="paint0_linear_1_61" x1="168.095" y1="35.3944" x2="658.781" y2="357.884" gradientUnits="userSpaceOnUse">
<stop stop-color="white"/>
<stop offset="1" stop-color="white" stop-opacity="0"/>
</linearGradient>
<linearGradient id="paint1_linear_1_61" x1="144.74" y1="26.5669" x2="439.249" y2="358.796" gradientUnits="userSpaceOnUse">
<stop stop-color="white"/>
<stop offset="1" stop-color="white" stop-opacity="0.55"/>
</linearGradient>
</defs>
</svg>
