<svg width="101" height="33" viewBox="0 0 101 33" fill="none" xmlns="http://www.w3.org/2000/svg">
<g clip-path="url(#clip0_1_100)">
<path d="M43.5932 0.608276L26.7132 13.0883C25.8954 9.99959 24.0642 7.27494 21.5132 5.35113C18.9058 3.38117 15.7297 2.31041 12.4618 2.29971H0.42749V30.9397H12.5075C15.8016 30.9995 19.0208 29.9533 21.6503 27.9683C24.1925 26.0276 25.982 23.2646 26.7132 20.1511L43.5932 32.6083L60.4275 20.1511V30.9397H79.4218V25.1226H66.8503V2.26542H59.9932V13.0654L43.9932 25.534L40.5646 22.6311L48.3361 16.814L56.5418 10.5854L51.7875 6.84828L35.8561 18.894L32.4275 15.9911L48.4275 4.35685L43.5932 0.608276ZM6.89606 8.09399H12.0732C13.1398 8.09173 14.195 8.31367 15.1703 8.74542C16.1512 9.18277 17.0395 9.80341 17.7875 10.574C18.5614 11.3737 19.1778 12.312 19.6046 13.3397C20.4617 15.5135 20.4617 17.9316 19.6046 20.1054C19.2126 21.134 18.6311 22.0799 17.8903 22.894C17.1628 23.7119 16.2762 24.373 15.2846 24.8368C14.2535 25.315 13.1298 25.5608 11.9932 25.5568H6.89606V8.09399ZM100.999 25.1226V30.9397H82.0046V2.27685H88.9189V25.134H100.999V25.1226Z" fill="#3D544D"/>
</g>
<defs>
<clipPath id="clip0_1_100">
<rect width="100.571" height="32" fill="white" transform="translate(0.428589 0.608276)"/>
</clipPath>
</defs>
</svg>
