<svg width="1377" height="5081" viewBox="0 0 1377 5081" fill="none" xmlns="http://www.w3.org/2000/svg">
<path d="M854.924 0.956039C951.27 -0.544197 1144.79 19.7198 1026.67 175.426C879.032 370.058 1402.11 522.225 1317.74 370.058C1233.37 217.891 592.184 391.291 1111.04 649.621C1526.13 856.285 710.298 910.31 250.497 911.49C89.5714 919.159 -157.42 996.084 142.017 1242.43C516.314 1550.37 1193.53 1681.33 1152.29 1868.92C1111.04 2056.52 -369.158 2872.42 142.017 2872.42C1266.67 2872.42 241.995 3344.22 683.802 3504.3C818.538 3553.12 1388.37 3470.47 1358.7 3780.25C1303.42 4357.42 -57.0563 4083.39 93.2628 4400.13C281.162 4796.06 1358.7 4944.03 1387.46 5080.01" stroke="#2BB32A" stroke-width="1.5" stroke-linecap="square"/>
</svg>
