<svg width="455" height="491" viewBox="0 0 455 491" fill="none" xmlns="http://www.w3.org/2000/svg">
<rect width="412.27" height="260.381" rx="34.7175" transform="matrix(0.981627 0.190809 0.190809 0.981627 7.62939e-06 156.095)" fill="#2BB32A" stroke="url(#paint0_linear_18_11)" stroke-opacity="0.5" stroke-width="2.16984"/>
<path d="M80.984 355.871L78.8684 344.987L80.8514 345.373L87.2455 354.133L87.2754 354.139L85.7567 346.326L87.6055 346.685L89.7212 357.57L87.7382 357.184L81.3589 348.427L81.3291 348.421L82.8478 356.234L80.984 355.871ZM93.8958 358.525C93.1205 358.374 92.4686 358.046 91.9402 357.542C91.4197 357.029 91.089 356.41 90.948 355.685C90.7721 354.78 90.9898 354.153 91.6008 353.803C92.2119 353.453 93.1685 353.405 94.4706 353.658L95.559 353.87C95.4856 353.492 95.3798 353.194 95.2418 352.976C95.1118 352.75 94.9247 352.575 94.6806 352.451C94.4465 352.329 94.1257 352.228 93.7181 352.149C93.2211 352.052 92.7139 352.002 92.1965 351.997C91.689 351.994 91.221 352.046 90.7925 352.154L90.2728 350.661C90.743 350.571 91.2756 350.531 91.8706 350.542C92.4657 350.552 93.0713 350.617 93.6876 350.737C94.4728 350.89 95.1075 351.104 95.5915 351.38C96.0854 351.657 96.4753 352.039 96.761 352.525C97.0467 353.011 97.2611 353.622 97.4041 354.357L98.3547 359.248L96.6102 358.909L96.4214 358.011L96.3916 358.005C96.1831 358.261 95.8447 358.44 95.3765 358.54C94.9062 358.63 94.4127 358.625 93.8958 358.525ZM94.2736 357.221C94.6414 357.292 94.9668 357.293 95.2498 357.224C95.5309 357.145 95.7387 357.008 95.8732 356.814C96.0076 356.621 96.0469 356.379 95.9908 356.091L95.8082 355.152L94.9882 354.992C94.1334 354.826 93.5095 354.815 93.1166 354.959C92.7317 355.094 92.5837 355.391 92.6725 355.848C92.7382 356.186 92.9097 356.477 93.1869 356.723C93.4641 356.968 93.8263 357.134 94.2736 357.221ZM100.317 359.629L98.8104 351.876L100.51 352.207L100.717 353.122L100.747 353.128C100.959 352.844 101.242 352.65 101.595 352.547C101.946 352.433 102.38 352.427 102.897 352.527C103.403 352.626 103.849 352.803 104.234 353.06C104.626 353.308 104.93 353.616 105.145 353.983L105.175 353.988C105.401 353.679 105.692 353.477 106.047 353.383C106.402 353.29 106.843 353.294 107.369 353.396C108.204 353.559 108.854 353.9 109.319 354.421C109.782 354.932 110.105 355.659 110.288 356.604L111.291 361.762L109.517 361.418L108.601 356.706C108.487 356.12 108.309 355.674 108.068 355.369C107.827 355.064 107.498 354.871 107.081 354.789C106.584 354.693 106.223 354.78 105.998 355.052C105.774 355.324 105.715 355.734 105.821 356.28L106.714 360.873L104.925 360.525L103.983 355.679C103.884 355.172 103.705 354.769 103.446 354.47C103.185 354.161 102.861 353.969 102.474 353.894C102.175 353.836 101.917 353.862 101.7 353.973C101.492 354.086 101.34 354.262 101.243 354.501C101.156 354.742 101.146 355.037 101.214 355.385L102.107 359.977L100.317 359.629ZM117.018 363.019C115.646 362.752 114.525 362.2 113.654 361.361C112.783 360.522 112.222 359.457 111.971 358.165C111.728 356.912 111.875 355.994 112.411 355.409C112.958 354.827 113.823 354.651 115.006 354.881C116.149 355.103 117.099 355.613 117.857 356.411C118.614 357.208 119.114 358.228 119.355 359.471C119.382 359.61 119.407 359.763 119.43 359.93C119.453 360.097 119.467 360.219 119.473 360.297L113.121 359.062L112.863 357.735L117.814 358.698L117.623 359.048C117.465 358.233 117.189 357.601 116.796 357.151C116.41 356.694 115.904 356.404 115.278 356.282C114.612 356.153 114.146 356.263 113.879 356.613C113.62 356.955 113.569 357.528 113.726 358.333L113.827 358.855C113.974 359.611 114.282 360.211 114.751 360.656C115.218 361.091 115.854 361.387 116.659 361.543C117.077 361.625 117.517 361.672 117.978 361.685C118.438 361.688 118.838 361.656 119.179 361.588L119.681 363.063C119.332 363.139 118.923 363.174 118.453 363.169C117.983 363.164 117.505 363.114 117.018 363.019Z" fill="#595959"/>
<path d="M69.7592 272.878C68.5764 272.648 67.5141 272.227 66.5723 271.613C65.6305 271 64.8499 270.231 64.2304 269.307C63.6208 268.385 63.2029 267.343 62.9769 266.18C62.7489 265.007 62.7784 264.052 63.0653 263.314C63.3602 262.567 63.8916 262.054 64.6595 261.773C65.4274 261.492 66.4028 261.466 67.5856 261.696C68.9374 261.959 70.1922 262.485 71.3499 263.274L71.2363 264.83C70.1104 264.057 69.0206 263.567 67.967 263.363C67.1817 263.21 66.5317 263.237 66.017 263.443C65.5004 263.639 65.145 264 64.9509 264.527C64.7568 265.053 64.7399 265.729 64.9002 266.554C65.0587 267.369 65.3499 268.105 65.774 268.761C66.1961 269.407 66.7264 269.946 67.3647 270.376C68.0011 270.796 68.7119 271.082 69.4972 271.235C70.521 271.434 71.4987 271.347 72.4303 270.973L73.1815 272.697C72.2518 273.081 71.1111 273.141 69.7592 272.878ZM75.1409 273.781L73.6338 266.028L75.3932 266.37L75.6921 267.834L75.722 267.84C75.9147 267.552 76.1618 267.323 76.4634 267.152C76.7729 266.973 77.1298 266.865 77.534 266.829C77.9363 266.783 78.371 266.805 78.8382 266.896L79.1454 268.476C78.5192 268.355 77.9709 268.363 77.5003 268.501C77.0398 268.641 76.695 268.885 76.4661 269.232C76.2452 269.572 76.1831 269.99 76.2797 270.487L76.9897 274.14L75.1409 273.781ZM85.0273 275.846C83.6556 275.579 82.5343 275.027 81.6635 274.188C80.7927 273.349 80.2317 272.284 79.9805 270.992C79.7371 269.739 79.8838 268.821 80.4206 268.236C80.9673 267.654 81.8321 267.478 83.0149 267.708C84.158 267.93 85.1084 268.44 85.866 269.238C86.6236 270.035 87.1231 271.055 87.3646 272.298C87.3917 272.437 87.4167 272.59 87.4396 272.757C87.4625 272.924 87.4767 273.046 87.4822 273.124L81.1306 271.889L80.8727 270.562L85.8227 271.525L85.6326 271.875C85.4742 271.06 85.1983 270.428 84.8048 269.978C84.4194 269.521 83.9136 269.231 83.2874 269.109C82.6214 268.98 82.155 269.09 81.8883 269.44C81.6296 269.782 81.5784 270.355 81.7349 271.16L81.8364 271.682C81.9832 272.438 82.2912 273.038 82.7603 273.483C83.2274 273.918 83.8636 274.214 84.6687 274.37C85.0862 274.452 85.5257 274.499 85.9874 274.512C86.4471 274.515 86.8473 274.483 87.1881 274.415L87.6899 275.89C87.3412 275.966 86.932 276.001 86.4623 275.996C85.9927 275.991 85.5143 275.941 85.0273 275.846ZM92.6047 277.319C91.571 277.118 90.6972 276.609 89.9835 275.791C89.2699 274.973 88.7893 273.928 88.542 272.656C88.2947 271.383 88.3907 270.45 88.8301 269.857C89.2694 269.263 90.0059 269.067 91.0397 269.268C91.5566 269.368 92.0411 269.548 92.4934 269.809C92.9456 270.069 93.3497 270.401 93.7056 270.804L93.7503 270.813L92.9649 266.773L94.769 267.123L96.8847 278.007L95.17 277.674L94.9634 276.759L94.9336 276.753C94.711 277.035 94.3945 277.227 93.9839 277.329C93.5813 277.423 93.1216 277.419 92.6047 277.319ZM92.792 275.921C93.1797 275.996 93.5071 275.983 93.7744 275.882C94.0516 275.783 94.2527 275.612 94.3775 275.368C94.5023 275.125 94.5309 274.829 94.4633 274.481L94.1908 273.079C94.1213 272.722 93.971 272.391 93.7399 272.088C93.5069 271.775 93.2258 271.51 92.8967 271.293C92.5676 271.076 92.2042 270.929 91.8066 270.851C91.1804 270.73 90.7359 270.854 90.473 271.223C90.22 271.595 90.1728 272.188 90.3312 273.004C90.4897 273.819 90.7804 274.478 91.2033 274.981C91.6362 275.486 92.1658 275.799 92.792 275.921ZM97.4238 269.332L97.0818 267.573L98.9306 267.932L99.2726 269.692L97.4238 269.332ZM99.1974 278.457L97.6991 270.749L99.5479 271.108L101.046 278.816L99.1974 278.457ZM106.862 280.09C105.948 279.913 105.25 279.595 104.769 279.138C104.288 278.681 103.965 278.026 103.798 277.171L103.016 273.145L101.286 272.809L101.002 271.348L102.732 271.684L102.239 269.149L104.088 269.509L104.581 272.043L107.19 272.55L107.474 274.012L104.865 273.504L105.557 277.068C105.654 277.565 105.801 277.928 105.999 278.158C106.205 278.38 106.516 278.531 106.934 278.612C107.152 278.655 107.377 278.679 107.608 278.686C107.839 278.693 108.042 278.679 108.217 278.647L108.674 280.184C108.355 280.218 108.051 280.226 107.76 280.208C107.47 280.189 107.17 280.15 106.862 280.09ZM119.905 282.626C118.722 282.396 117.66 281.974 116.718 281.361C115.776 280.747 114.996 279.979 114.376 279.055C113.767 278.133 113.349 277.09 113.123 275.927C112.895 274.754 112.924 273.799 113.211 273.061C113.506 272.315 114.038 271.801 114.805 271.52C115.573 271.239 116.549 271.213 117.732 271.443C119.083 271.706 120.338 272.232 121.496 273.021L121.382 274.577C120.256 273.804 119.167 273.315 118.113 273.11C117.328 272.957 116.678 272.984 116.163 273.19C115.646 273.386 115.291 273.747 115.097 274.274C114.903 274.8 114.886 275.476 115.046 276.301C115.205 277.116 115.496 277.852 115.92 278.508C116.342 279.155 116.872 279.693 117.511 280.123C118.147 280.543 118.858 280.83 119.643 280.982C120.667 281.181 121.645 281.094 122.576 280.72L123.327 282.444C122.398 282.828 121.257 282.888 119.905 282.626ZM127.077 284.02C126.302 283.869 125.65 283.542 125.122 283.037C124.601 282.525 124.27 281.906 124.129 281.18C123.954 280.276 124.171 279.648 124.782 279.298C125.393 278.949 126.35 278.9 127.652 279.153L128.74 279.365C128.667 278.987 128.561 278.689 128.423 278.471C128.293 278.245 128.106 278.07 127.862 277.946C127.628 277.824 127.307 277.723 126.9 277.644C126.403 277.548 125.895 277.497 125.378 277.492C124.87 277.489 124.402 277.541 123.974 277.649L123.454 276.157C123.924 276.066 124.457 276.026 125.052 276.037C125.647 276.047 126.253 276.112 126.869 276.232C127.654 276.385 128.289 276.599 128.773 276.875C129.267 277.153 129.657 277.534 129.942 278.02C130.228 278.506 130.443 279.117 130.586 279.853L131.536 284.743L129.792 284.404L129.603 283.506L129.573 283.501C129.365 283.757 129.026 283.935 128.558 284.035C128.088 284.125 127.594 284.12 127.077 284.02ZM127.455 282.716C127.823 282.787 128.148 282.789 128.431 282.719C128.712 282.64 128.92 282.503 129.055 282.31C129.189 282.116 129.228 281.875 129.172 281.586L128.99 280.647L128.17 280.488C127.315 280.322 126.691 280.31 126.298 280.454C125.913 280.589 125.765 280.886 125.854 281.343C125.92 281.681 126.091 281.973 126.368 282.218C126.646 282.463 127.008 282.629 127.455 282.716ZM133.499 285.125L131.992 277.371L133.751 277.713L134.05 279.178L134.08 279.183C134.273 278.896 134.52 278.666 134.821 278.495C135.131 278.316 135.488 278.209 135.892 278.173C136.294 278.126 136.729 278.149 137.196 278.24L137.503 279.82C136.877 279.698 136.329 279.707 135.858 279.845C135.398 279.985 135.053 280.228 134.824 280.576C134.603 280.916 134.541 281.334 134.638 281.831L135.348 285.484L133.499 285.125ZM142.401 286.998C141.367 286.798 140.494 286.288 139.78 285.47C139.066 284.653 138.586 283.608 138.339 282.335C138.091 281.063 138.187 280.13 138.627 279.536C139.066 278.943 139.802 278.746 140.836 278.947C141.353 279.048 141.838 279.228 142.29 279.488C142.742 279.748 143.146 280.08 143.502 280.484L143.547 280.493L142.761 276.452L144.565 276.803L146.681 287.687L144.967 287.354L144.76 286.438L144.73 286.433C144.508 286.714 144.191 286.906 143.78 287.008C143.378 287.102 142.918 287.099 142.401 286.998ZM142.588 285.6C142.976 285.676 143.304 285.663 143.571 285.562C143.848 285.462 144.049 285.291 144.174 285.048C144.299 284.804 144.327 284.508 144.26 284.16L143.987 282.759C143.918 282.401 143.767 282.071 143.536 281.767C143.303 281.454 143.022 281.189 142.693 280.972C142.364 280.755 142.001 280.608 141.603 280.531C140.977 280.409 140.532 280.533 140.269 280.903C140.017 281.275 139.969 281.868 140.128 282.683C140.286 283.498 140.577 284.157 141 284.66C141.433 285.165 141.962 285.479 142.588 285.6ZM153.129 288.94L151.013 278.056L152.996 278.442L159.391 287.202L159.42 287.208L157.902 279.395L159.751 279.754L161.866 290.639L159.883 290.253L153.504 281.496L153.474 281.49L154.993 289.303L153.129 288.94ZM167.577 291.892C166.324 291.649 165.287 291.112 164.466 290.283C163.653 289.446 163.122 288.386 162.873 287.104C162.624 285.822 162.769 284.899 163.31 284.334C163.859 283.762 164.759 283.597 166.012 283.841C167.264 284.084 168.302 284.625 169.125 285.464C169.946 286.294 170.481 287.349 170.73 288.632C170.979 289.914 170.83 290.841 170.281 291.414C169.73 291.976 168.829 292.136 167.577 291.892ZM167.293 290.431C167.978 290.564 168.459 290.452 168.733 290.094C169.006 289.726 169.061 289.12 168.896 288.275C168.732 287.43 168.43 286.759 167.989 286.262C167.546 285.755 166.981 285.435 166.296 285.302C165.62 285.171 165.14 285.288 164.858 285.654C164.583 286.011 164.528 286.613 164.692 287.458C164.856 288.303 165.16 288.979 165.602 289.485C166.053 289.984 166.617 290.3 167.293 290.431ZM172.934 292.79L172.525 290.688L174.643 291.099L175.051 293.202L172.934 292.79Z" fill="#595959"/>
<path d="M211.15 377.074L209.034 366.19L216.31 367.604L216.623 369.214L211.211 368.162L211.756 370.965L216.87 371.959L217.177 373.54L212.063 372.546L212.701 375.826L218.113 376.878L218.426 378.488L211.15 377.074ZM219.621 378.72L221.321 375.292L218.143 370.973L220.171 371.367L222.374 374.578L222.403 374.584L223.481 372.011L225.509 372.405L223.826 375.779L227.046 380.164L225.018 379.769L222.777 376.508L222.747 376.502L221.663 379.117L219.621 378.72ZM231.364 373.399C232.397 373.6 233.271 374.11 233.985 374.927C234.698 375.745 235.179 376.79 235.426 378.063C235.674 379.335 235.578 380.268 235.138 380.861C234.699 381.455 233.962 381.651 232.929 381.451C232.422 381.352 231.937 381.172 231.475 380.91C231.021 380.64 230.617 380.308 230.263 379.914L230.233 379.908L231.018 383.949L229.184 383.592L227.069 372.708L228.813 373.047L229.005 373.959L229.035 373.965C229.265 373.675 229.582 373.483 229.984 373.389C230.387 373.295 230.847 373.299 231.364 373.399ZM231.176 374.797C230.799 374.724 230.471 374.737 230.194 374.836C229.917 374.935 229.716 375.107 229.591 375.35C229.474 375.586 229.45 375.882 229.52 376.24L229.792 377.642C229.86 377.99 230.005 378.319 230.228 378.63C230.461 378.943 230.747 379.209 231.087 379.428C231.426 379.647 231.784 379.793 232.162 379.867C232.798 379.99 233.242 379.866 233.495 379.495C233.748 379.123 233.796 378.53 233.637 377.715C233.479 376.9 233.188 376.241 232.765 375.738C232.342 375.234 231.812 374.921 231.176 374.797ZM237.638 382.222L237.229 380.12L239.346 380.532L239.755 382.634L237.638 382.222Z" fill="#595959"/>
<path d="M220.785 406.979C219.541 406.737 218.541 406.166 217.783 405.264C217.026 404.363 216.489 403.099 216.173 401.471C215.857 399.844 215.925 398.697 216.377 398.031C216.83 397.365 217.678 397.153 218.922 397.394C220.166 397.636 221.162 398.207 221.911 399.107C222.668 400.008 223.205 401.272 223.521 402.9C223.838 404.527 223.77 405.674 223.317 406.34C222.873 407.008 222.029 407.221 220.785 406.979ZM220.509 405.561C221.216 405.698 221.679 405.526 221.897 405.043C222.114 404.561 222.111 403.74 221.885 402.582C221.659 401.415 221.331 400.531 220.903 399.931C220.473 399.323 219.905 398.95 219.198 398.813C218.491 398.675 218.024 398.847 217.798 399.328C217.578 399.802 217.582 400.622 217.809 401.789C218.034 402.948 218.361 403.832 218.791 404.44C219.229 405.05 219.802 405.423 220.509 405.561ZM227.134 398.991C227.901 399.14 228.575 399.402 229.156 399.777C229.737 400.152 230.211 400.63 230.578 401.21C230.953 401.791 231.217 402.473 231.37 403.257C231.598 404.433 231.568 405.415 231.278 406.203C230.996 406.984 230.481 407.544 229.736 407.883C228.99 408.222 228.031 408.31 226.86 408.148L226.328 406.802C227.373 406.948 228.19 406.89 228.778 406.627C229.365 406.356 229.741 405.867 229.908 405.162L229.88 405.144C229.608 405.263 229.306 405.336 228.975 405.362C228.652 405.389 228.287 405.363 227.878 405.284C226.932 405.1 226.133 404.678 225.48 404.018C224.835 403.36 224.418 402.541 224.227 401.561C224.095 400.88 224.122 400.323 224.309 399.893C224.496 399.462 224.828 399.17 225.307 399.017C225.784 398.855 226.393 398.847 227.134 398.991ZM227.4 400.358C226.769 400.236 226.316 400.307 226.04 400.573C225.77 400.832 225.693 401.256 225.807 401.844C225.921 402.432 226.168 402.922 226.548 403.316C226.935 403.703 227.427 403.954 228.023 404.07C228.449 404.153 228.802 404.156 229.082 404.079C229.361 403.994 229.555 403.831 229.663 403.589C229.779 403.341 229.801 403.03 229.728 402.655C229.663 402.323 229.535 401.999 229.342 401.682C229.158 401.368 228.904 401.093 228.579 400.858C228.261 400.616 227.868 400.449 227.4 400.358ZM233.322 409.785L235.859 400.318L237.419 400.621L234.881 410.088L233.322 409.785ZM243.919 411.353L242.453 403.813L242.427 403.808L239.531 405.102L238.8 403.619L242.105 402.024L243.728 402.339L245.542 411.668L243.919 411.353ZM252.131 412.949L250.665 405.409L250.64 405.404L247.743 406.698L247.012 405.216L250.317 403.62L251.94 403.935L253.754 413.265L252.131 412.949Z" fill="#424242"/>
<path d="M85.6728 380.593L83.8594 371.264L86.671 371.81C88.0427 372.077 89.0868 372.493 89.8034 373.059C90.5285 373.626 90.9846 374.391 91.1718 375.354C91.3556 376.299 91.1863 376.947 90.664 377.296C90.1502 377.647 89.2713 377.702 88.0274 377.46L85.6503 376.998L85.4119 375.771L87.5844 376.193C88.4535 376.362 89.0565 376.365 89.3935 376.201C89.7374 376.03 89.8564 375.672 89.7504 375.126C89.6444 374.581 89.3722 374.151 88.9339 373.836C88.5025 373.515 87.8523 373.27 86.9833 373.101L85.5136 372.815L87.0786 380.866L85.6728 380.593ZM91.1298 381.654L86.07 376.563L87.8464 376.908L92.9573 382.009L91.1298 381.654ZM94.4839 382.306L92.6705 372.976L98.8048 374.169L99.0483 375.421L94.3197 374.502L94.8215 377.084L99.2945 377.953L99.5329 379.18L95.06 378.311L95.6463 381.327L100.375 382.246L100.618 383.498L94.4839 382.306ZM108.322 384.996L106.509 375.666L107.914 375.94L109.728 385.269L108.322 384.996ZM102.571 383.878L100.758 374.548L102.164 374.822L103.977 384.151L102.571 383.878ZM102.449 379.771L102.201 378.493L107.952 379.611L108.2 380.889L102.449 379.771ZM110.986 385.513L112.572 376.845L114.477 377.215L119.677 387.203L118.13 386.902L113.764 378.233L113.739 378.228L112.533 385.814L110.986 385.513ZM112.295 383.518L112.047 382.24L117.223 383.246L117.471 384.524L112.295 383.518ZM120.93 387.446L119.116 378.117L120.65 378.415L126.464 386.308L126.489 386.313L125.123 379.285L126.529 379.558L128.342 388.887L126.808 388.589L120.995 380.696L120.969 380.691L122.336 387.72L120.93 387.446ZM134.096 390.006L132.283 380.676L135.095 381.223C136.466 381.489 137.51 381.906 138.227 382.471C138.952 383.038 139.408 383.803 139.595 384.766C139.779 385.712 139.61 386.359 139.088 386.709C138.574 387.06 137.695 387.114 136.451 386.873L134.074 386.411L133.836 385.184L136.008 385.606C136.877 385.775 137.48 385.777 137.817 385.613C138.161 385.442 138.28 385.084 138.174 384.539C138.068 383.994 137.796 383.564 137.358 383.249C136.926 382.927 136.276 382.682 135.407 382.513L133.937 382.228L135.502 390.279L134.096 390.006ZM139.553 391.066L134.494 385.976L136.27 386.321L141.381 391.422L139.553 391.066ZM141.987 391.539L143.573 382.871L145.478 383.241L150.678 393.229L149.131 392.928L144.765 384.259L144.74 384.254L143.534 391.84L141.987 391.539ZM143.296 389.544L143.048 388.266L148.224 389.272L148.472 390.55L143.296 389.544ZM152.046 393.495L150.232 384.165L151.689 384.449L153.503 393.778L152.046 393.495ZM161.538 395.34L159.725 386.01L161.131 386.284L162.944 395.613L161.538 395.34ZM155.787 394.222L153.974 384.893L155.38 385.166L157.193 394.495L155.787 394.222ZM155.665 390.116L155.417 388.838L161.168 389.956L161.416 391.233L155.665 390.116ZM164.202 395.858L165.788 387.189L167.693 387.559L172.893 397.547L171.346 397.246L166.98 388.577L166.955 388.572L165.749 396.158L164.202 395.858ZM165.511 393.862L165.263 392.584L170.439 393.59L170.687 394.868L165.511 393.862ZM174.146 397.79L172.332 388.461L173.866 388.759L179.68 396.653L179.705 396.658L178.339 389.629L179.745 389.902L181.558 399.231L180.025 398.933L174.211 391.04L174.185 391.035L175.552 398.064L174.146 397.79Z" fill="#424242"/>
<path fill-rule="evenodd" clip-rule="evenodd" d="M71.5894 218.006C73.6769 216.164 74.6185 213.123 73.8946 209.398C73.1707 205.674 70.9262 202.013 67.9305 199.183C69.7992 197.534 72.5873 196.847 75.921 197.495C82.979 198.867 89.8131 205.701 91.185 212.759C92.5569 219.817 87.9473 224.427 80.8893 223.055C77.5556 222.407 74.2709 220.539 71.5894 218.006ZM71.5894 218.006C69.7207 219.655 66.9326 220.342 63.5989 219.694C56.5409 218.322 49.7068 211.488 48.3349 204.43C46.963 197.372 51.5726 192.762 58.6306 194.134C61.9643 194.782 65.249 196.65 67.9305 199.183C65.843 201.025 64.9014 204.067 65.6253 207.791C66.3492 211.515 68.5937 215.176 71.5894 218.006Z" fill="#424242"/>
<path fill-rule="evenodd" clip-rule="evenodd" d="M375.315 255.93C375.828 255.619 376.685 255.919 377.227 256.598C380.115 260.216 383.876 266.16 385.843 272.35C387.823 278.581 388.001 285.143 383.531 289.7C383.118 290.122 382.278 289.964 381.656 289.348C381.034 288.731 380.865 287.889 381.279 287.468C385.177 283.493 385.062 277.802 383.277 272.184C381.479 266.524 378.002 261.023 375.367 257.722C374.824 257.043 374.801 256.24 375.315 255.93ZM370.506 259.681C371.019 259.369 371.875 259.667 372.418 260.346C374.455 262.893 377.101 267.066 378.487 271.421C379.886 275.818 380.016 280.481 376.83 283.715C376.415 284.136 375.576 283.976 374.954 283.359C374.333 282.742 374.165 281.9 374.58 281.48C377.192 278.828 377.124 275.037 375.922 271.256C374.705 267.433 372.344 263.704 370.561 261.474C370.018 260.795 369.993 259.992 370.506 259.681ZM367.108 264.134C367.618 263.82 368.474 264.114 369.02 264.791C370.13 266.17 371.561 268.411 372.313 270.766C373.08 273.166 373.155 275.76 371.368 277.547C370.95 277.965 370.11 277.801 369.49 277.182C368.871 276.563 368.708 275.722 369.125 275.304C370.333 274.097 370.316 272.379 369.749 270.605C369.168 268.786 368.027 266.992 367.172 265.931C366.626 265.253 366.598 264.449 367.108 264.134ZM364.53 268.927C364.041 268.832 363.722 269.151 363.817 269.64C363.912 270.129 364.386 270.602 364.874 270.697C365.363 270.792 365.683 270.473 365.588 269.984C365.493 269.495 365.019 269.022 364.53 268.927ZM361.162 269.123C360.782 267.168 362.059 265.891 364.014 266.271C365.97 266.651 367.863 268.544 368.243 270.5C368.623 272.455 367.346 273.733 365.391 273.352C363.435 272.972 361.542 271.079 361.162 269.123Z" fill="#424242"/>
<path d="M73.2787 305.97L70.9394 293.935L70.8968 293.927L67.0798 296.854L66.4008 293.361L70.2563 290.421L73.3235 291.017L76.3458 306.566L73.2787 305.97ZM83.8848 308.236C82.692 308.004 81.6935 307.612 80.8892 307.06C80.0992 306.51 79.4498 305.735 78.941 304.734C78.4465 303.736 78.0474 302.456 77.7437 300.894C77.3159 298.693 77.2508 296.952 77.5482 295.671C77.843 294.376 78.5205 293.503 79.5808 293.053C80.6411 292.603 82.1057 292.547 83.9745 292.883L84.4879 295.524C83.6359 295.358 82.8967 295.351 82.2704 295.503C81.6412 295.64 81.1677 295.91 80.8497 296.313C80.5318 296.715 80.4079 297.238 80.478 297.88L80.5632 297.897C80.9194 297.761 81.2667 297.685 81.6052 297.669C81.9436 297.652 82.3187 297.684 82.7305 297.764C84.0937 298.029 85.1762 298.643 85.9781 299.605C86.7913 300.555 87.3677 301.904 87.7072 303.651C88.0909 305.624 87.9835 306.97 87.3851 307.687C86.7981 308.393 85.6313 308.576 83.8848 308.236ZM83.4092 305.684C84.0482 305.809 84.4727 305.673 84.6825 305.276C84.8896 304.866 84.8993 304.177 84.7117 303.212C84.524 302.246 84.2369 301.507 83.8503 300.995C83.4611 300.468 82.9469 300.143 82.3079 300.019C81.6689 299.895 81.2459 300.038 81.0388 300.448C80.8289 300.845 80.8178 301.526 81.0055 302.491C81.1932 303.457 81.4817 304.203 81.871 304.73C82.2575 305.242 82.7702 305.56 83.4092 305.684ZM93.1849 303.363C92.7305 303.274 92.3422 303.069 92.02 302.747C91.6977 302.425 91.4938 302.043 91.4083 301.603C91.3199 301.149 91.3858 300.82 91.6059 300.617C91.8233 300.4 92.1592 300.335 92.6136 300.423C93.068 300.512 93.4563 300.717 93.7785 301.039C94.098 301.347 94.3019 301.728 94.3902 302.183C94.4758 302.623 94.4099 302.952 94.1925 303.169C93.9752 303.387 93.6393 303.451 93.1849 303.363ZM94.5346 310.306C93.3561 310.077 92.3733 309.661 91.5864 309.057C90.7968 308.439 90.1409 307.56 89.6187 306.42C89.0966 305.28 88.6616 303.816 88.3138 302.026L88.0654 300.748C87.7148 298.945 87.5923 297.541 87.6977 296.537C87.8003 295.519 88.1539 294.843 88.7586 294.509C89.3606 294.162 90.2509 294.103 91.4294 294.332C92.5938 294.558 93.5708 294.98 94.3605 295.598C95.1616 296.205 95.8232 297.078 96.3454 298.218C96.8648 299.344 97.2997 300.808 97.6503 302.612L97.8987 303.89C98.2465 305.679 98.3691 307.083 98.2664 308.101C98.1638 309.12 97.8044 309.801 97.1883 310.146C96.5836 310.479 95.699 310.533 94.5346 310.306ZM94.0212 307.665C94.504 307.759 94.8413 307.702 95.033 307.493C95.2247 307.284 95.2956 306.84 95.2455 306.161C95.2069 305.47 95.0551 304.444 94.7901 303.08L94.6245 302.228C94.3595 300.865 94.1097 299.826 93.8751 299.111C93.6519 298.384 93.3947 297.87 93.1037 297.567C92.8126 297.265 92.4256 297.067 91.9428 296.973C91.4742 296.882 91.137 296.939 90.9311 297.145C90.7394 297.354 90.6628 297.803 90.7014 298.494C90.7515 299.173 90.909 300.194 91.174 301.558L91.3396 302.41C91.6045 303.773 91.8486 304.818 92.0718 305.544C92.3065 306.259 92.5694 306.768 92.8604 307.071C93.1657 307.376 93.5527 307.574 94.0212 307.665ZM100.386 308.78C101.15 307.931 101.788 307.166 102.298 306.487C102.805 305.793 103.201 305.159 103.486 304.586C103.768 303.999 103.949 303.453 104.028 302.95C104.108 302.446 104.101 301.953 104.007 301.47C103.861 300.717 103.59 300.132 103.194 299.713C102.799 299.295 102.253 299.018 101.557 298.883C100.649 298.706 99.6275 298.76 98.4942 299.046L97.956 296.277C98.9299 296.015 100.184 296.033 101.717 296.331C103.265 296.632 104.473 297.222 105.34 298.101C106.205 298.966 106.79 300.18 107.093 301.742C107.22 302.395 107.258 303.044 107.206 303.69C107.165 304.324 107.029 304.961 106.798 305.599C106.567 306.237 106.247 306.879 105.84 307.524C105.447 308.171 104.951 308.82 104.353 309.469L104.369 309.554L108.906 310.436L109.403 312.992L100.883 311.336L100.386 308.78ZM135.784 311.643C135.33 311.555 134.942 311.35 134.619 311.027C134.297 310.705 134.093 310.324 134.008 309.884C133.919 309.429 133.985 309.101 134.205 308.897C134.423 308.68 134.759 308.616 135.213 308.704C135.667 308.792 136.056 308.997 136.378 309.32C136.697 309.628 136.901 310.009 136.99 310.463C137.075 310.904 137.009 311.232 136.792 311.45C136.575 311.667 136.239 311.732 135.784 311.643ZM137.134 318.587C135.956 318.358 134.973 317.941 134.186 317.338C133.396 316.719 132.74 315.841 132.218 314.701C131.696 313.561 131.261 312.096 130.913 310.307L130.665 309.029C130.314 307.226 130.192 305.822 130.297 304.818C130.4 303.799 130.753 303.123 131.358 302.79C131.96 302.442 132.85 302.383 134.029 302.612C135.193 302.838 136.17 303.261 136.96 303.879C137.761 304.485 138.423 305.359 138.945 306.498C139.464 307.624 139.899 309.089 140.25 310.892L140.498 312.17C140.846 313.959 140.969 315.363 140.866 316.382C140.763 317.4 140.404 318.082 139.788 318.426C139.183 318.76 138.299 318.813 137.134 318.587ZM136.621 315.946C137.104 316.04 137.441 315.982 137.633 315.774C137.824 315.565 137.895 315.121 137.845 314.442C137.806 313.751 137.655 312.724 137.39 311.361L137.224 310.509C136.959 309.146 136.709 308.107 136.475 307.391C136.251 306.665 135.994 306.15 135.703 305.848C135.412 305.545 135.025 305.347 134.542 305.253C134.074 305.162 133.736 305.22 133.531 305.426C133.339 305.634 133.262 306.084 133.301 306.775C133.351 307.454 133.508 308.475 133.773 309.838L133.939 310.69C134.204 312.053 134.448 313.098 134.671 313.825C134.906 314.54 135.169 315.049 135.46 315.351C135.765 315.657 136.152 315.855 136.621 315.946ZM144.679 304.682C145.886 304.917 146.884 305.309 147.674 305.859C148.464 306.409 149.107 307.183 149.601 308.18C150.11 309.181 150.516 310.462 150.82 312.024C151.245 314.211 151.31 315.952 151.015 317.248C150.721 318.543 150.043 319.416 148.983 319.865C147.937 320.318 146.472 320.375 144.589 320.036L144.076 317.395C144.942 317.563 145.682 317.577 146.297 317.437C146.924 317.286 147.396 317.009 147.714 316.606C148.029 316.189 148.153 315.667 148.086 315.039L148 315.022C147.644 315.158 147.297 315.234 146.958 315.25C146.62 315.266 146.245 315.234 145.833 315.154C144.47 314.889 143.382 314.281 142.568 313.331C141.767 312.369 141.196 311.015 140.856 309.268C140.473 307.294 140.574 305.954 141.161 305.249C141.76 304.532 142.932 304.343 144.679 304.682ZM145.154 307.234C144.515 307.11 144.092 307.253 143.885 307.664C143.675 308.06 143.664 308.741 143.852 309.707C144.04 310.672 144.328 311.418 144.717 311.945C145.104 312.457 145.617 312.776 146.256 312.9C146.895 313.024 147.319 312.888 147.529 312.491C147.736 312.081 147.746 311.393 147.558 310.427C147.37 309.462 147.083 308.723 146.697 308.21C146.307 307.684 145.793 307.358 145.154 307.234ZM158.478 322.531L156.138 310.496L156.096 310.488L152.279 313.415L151.6 309.922L155.455 306.982L158.522 307.578L161.545 323.127L158.478 322.531ZM169.128 324.601L166.788 312.567L166.746 312.558L162.929 315.485L162.25 311.992L166.105 309.052L169.172 309.648L172.195 325.197L169.128 324.601ZM196.235 327.411C196.999 326.562 197.636 325.798 198.146 325.118C198.654 324.424 199.05 323.79 199.335 323.217C199.617 322.63 199.798 322.084 199.877 321.581C199.957 321.077 199.95 320.584 199.856 320.101C199.71 319.348 199.439 318.763 199.043 318.344C198.648 317.926 198.102 317.649 197.406 317.514C196.497 317.337 195.476 317.391 194.343 317.677L193.805 314.908C194.779 314.646 196.033 314.664 197.566 314.963C199.114 315.263 200.322 315.853 201.189 316.733C202.054 317.597 202.639 318.811 202.942 320.373C203.069 321.026 203.107 321.676 203.055 322.321C203.014 322.956 202.878 323.592 202.647 324.23C202.416 324.868 202.096 325.51 201.689 326.155C201.295 326.803 200.8 327.451 200.202 328.1L200.218 328.185L204.755 329.067L205.252 331.623L196.732 329.967L196.235 327.411ZM210.334 326.134C209.879 326.046 209.491 325.84 209.169 325.518C208.846 325.196 208.642 324.815 208.557 324.375C208.469 323.92 208.534 323.591 208.755 323.388C208.972 323.171 209.308 323.106 209.762 323.195C210.217 323.283 210.605 323.488 210.927 323.811C211.247 324.119 211.451 324.5 211.539 324.954C211.624 325.394 211.559 325.723 211.341 325.941C211.124 326.158 210.788 326.222 210.334 326.134ZM211.683 333.078C210.505 332.849 209.522 332.432 208.735 331.828C207.945 331.21 207.29 330.331 206.767 329.191C206.245 328.052 205.81 326.587 205.462 324.798L205.214 323.52C204.863 321.716 204.741 320.313 204.846 319.308C204.949 318.29 205.303 317.614 205.907 317.281C206.509 316.933 207.399 316.874 208.578 317.103C209.742 317.329 210.719 317.752 211.509 318.37C212.31 318.976 212.972 319.849 213.494 320.989C214.013 322.115 214.448 323.58 214.799 325.383L215.047 326.661C215.395 328.45 215.518 329.854 215.415 330.872C215.312 331.891 214.953 332.573 214.337 332.917C213.732 333.251 212.848 333.304 211.683 333.078ZM211.17 330.437C211.653 330.531 211.99 330.473 212.182 330.264C212.373 330.056 212.444 329.612 212.394 328.933C212.356 328.242 212.204 327.215 211.939 325.852L211.773 325C211.508 323.637 211.258 322.597 211.024 321.882C210.8 321.156 210.543 320.641 210.252 320.339C209.961 320.036 209.574 319.838 209.091 319.744C208.623 319.653 208.286 319.711 208.08 319.916C207.888 320.125 207.811 320.575 207.85 321.265C207.9 321.945 208.058 322.966 208.323 324.329L208.488 325.181C208.753 326.544 208.997 327.589 209.22 328.316C209.455 329.031 209.718 329.54 210.009 329.842C210.314 330.147 210.701 330.346 211.17 330.437ZM222.377 334.952L220.038 322.917L219.995 322.909L216.178 325.836L215.499 322.342L219.355 319.403L222.422 319.999L225.444 335.548L222.377 334.952ZM229.878 321.243C231.085 321.478 232.083 321.87 232.873 322.42C233.663 322.97 234.306 323.744 234.8 324.741C235.309 325.742 235.715 327.023 236.019 328.585C236.444 330.772 236.509 332.513 236.214 333.809C235.92 335.104 235.242 335.977 234.182 336.426C233.136 336.879 231.671 336.936 229.788 336.597L229.275 333.956C230.141 334.124 230.881 334.138 231.496 333.998C232.123 333.847 232.595 333.57 232.913 333.167C233.228 332.75 233.352 332.228 233.285 331.6L233.199 331.583C232.843 331.719 232.496 331.795 232.157 331.811C231.819 331.827 231.444 331.795 231.032 331.715C229.669 331.45 228.581 330.842 227.767 329.892C226.966 328.93 226.395 327.576 226.055 325.829C225.672 323.855 225.773 322.515 226.36 321.81C226.959 321.093 228.131 320.904 229.878 321.243ZM230.353 323.795C229.714 323.671 229.291 323.814 229.084 324.225C228.874 324.621 228.863 325.302 229.051 326.268C229.239 327.233 229.527 327.979 229.916 328.506C230.303 329.018 230.816 329.337 231.455 329.461C232.094 329.585 232.518 329.449 232.728 329.052C232.935 328.642 232.945 327.954 232.757 326.988C232.569 326.023 232.282 325.284 231.896 324.771C231.506 324.245 230.992 323.919 230.353 323.795ZM260.134 339.831C260.899 338.983 261.536 338.218 262.046 337.539C262.553 336.845 262.949 336.211 263.234 335.638C263.516 335.051 263.697 334.505 263.777 334.001C263.856 333.498 263.849 333.005 263.755 332.522C263.609 331.769 263.338 331.184 262.943 330.765C262.547 330.347 262.001 330.07 261.305 329.935C260.397 329.758 259.376 329.812 258.242 330.097L257.704 327.328C258.678 327.067 259.932 327.085 261.465 327.383C263.013 327.684 264.221 328.274 265.089 329.153C265.954 330.018 266.538 331.232 266.841 332.794C266.968 333.447 267.006 334.096 266.954 334.742C266.913 335.376 266.777 336.013 266.546 336.651C266.315 337.289 265.995 337.931 265.588 338.576C265.195 339.223 264.699 339.872 264.101 340.52L264.118 340.606L268.654 341.488L269.151 344.044L260.631 342.387L260.134 339.831ZM274.233 338.555C273.778 338.467 273.39 338.261 273.068 337.939C272.746 337.617 272.542 337.236 272.456 336.795C272.368 336.341 272.434 336.012 272.654 335.809C272.871 335.592 273.207 335.527 273.661 335.615C274.116 335.704 274.504 335.909 274.826 336.231C275.146 336.539 275.35 336.921 275.438 337.375C275.524 337.815 275.458 338.144 275.24 338.361C275.023 338.579 274.687 338.643 274.233 338.555ZM275.583 345.499C274.404 345.269 273.421 344.853 272.634 344.249C271.845 343.631 271.189 342.752 270.667 341.612C270.144 340.472 269.709 339.008 269.362 337.219L269.113 335.941C268.763 334.137 268.64 332.733 268.746 331.729C268.848 330.711 269.202 330.035 269.807 329.701C270.408 329.354 271.299 329.295 272.477 329.524C273.642 329.75 274.619 330.172 275.408 330.79C276.209 331.397 276.871 332.27 277.393 333.41C277.913 334.536 278.348 336 278.698 337.804L278.947 339.082C279.294 340.871 279.417 342.275 279.314 343.293C279.212 344.312 278.852 344.993 278.236 345.338C277.631 345.671 276.747 345.725 275.583 345.499ZM275.069 342.857C275.552 342.951 275.889 342.894 276.081 342.685C276.273 342.476 276.343 342.033 276.293 341.353C276.255 340.663 276.103 339.636 275.838 338.273L275.672 337.421C275.407 336.057 275.158 335.018 274.923 334.303C274.7 333.577 274.443 333.062 274.152 332.759C273.86 332.457 273.474 332.259 272.991 332.165C272.522 332.074 272.185 332.131 271.979 332.337C271.787 332.546 271.711 332.996 271.749 333.686C271.799 334.365 271.957 335.387 272.222 336.75L272.387 337.602C272.652 338.965 272.897 340.01 273.12 340.736C273.354 341.452 273.617 341.96 273.908 342.263C274.214 342.568 274.601 342.766 275.069 342.857ZM281.434 343.972C282.198 343.123 282.835 342.359 283.345 341.679C283.853 340.985 284.249 340.351 284.534 339.778C284.816 339.191 284.997 338.645 285.076 338.142C285.156 337.638 285.149 337.145 285.055 336.662C284.909 335.909 284.638 335.324 284.242 334.905C283.847 334.487 283.301 334.21 282.605 334.075C281.696 333.898 280.675 333.952 279.542 334.238L279.004 331.469C279.978 331.207 281.232 331.225 282.765 331.524C284.313 331.824 285.521 332.414 286.388 333.294C287.253 334.158 287.838 335.372 288.141 336.934C288.268 337.587 288.306 338.237 288.254 338.882C288.213 339.517 288.077 340.153 287.846 340.791C287.615 341.429 287.295 342.071 286.888 342.716C286.494 343.364 285.999 344.012 285.401 344.661L285.417 344.746L289.954 345.628L290.451 348.184L281.931 346.528L281.434 343.972ZM296.926 349.442L294.587 337.408L294.544 337.4L290.727 340.326L290.048 336.833L293.904 333.894L296.971 334.49L299.993 350.039L296.926 349.442Z" fill="#424242"/>
<path d="M374.648 417.578C374.522 416.929 374.946 416.505 375.595 416.632L385.584 418.573C386.233 418.699 386.861 419.328 386.987 419.977L388.442 427.461C388.53 427.914 388.35 428.276 387.979 428.392L383.446 429.799C383.156 429.889 382.785 429.817 382.436 429.603L376.979 426.254C376.532 425.979 376.191 425.516 376.103 425.062L374.648 417.578Z" fill="#424242"/>
<path d="M393.451 421.233C393.325 420.584 393.749 420.16 394.398 420.286L397.335 420.857C397.984 420.984 398.613 421.612 398.739 422.261L399.196 424.611C399.322 425.26 398.898 425.684 398.249 425.558L395.311 424.987C394.662 424.861 394.034 424.232 393.908 423.583L393.451 421.233Z" fill="#424242"/>
<path d="M405.202 423.517C405.076 422.868 405.5 422.444 406.149 422.571L416.138 424.512C416.787 424.638 417.415 425.267 417.542 425.916L418.912 432.967C419.038 433.616 418.614 434.04 417.965 433.914L407.977 431.972C407.328 431.846 406.699 431.217 406.573 430.568L405.202 423.517Z" fill="#424242"/>
<path d="M377.047 429.917C376.921 429.268 377.344 428.845 377.993 428.971L387.982 430.912C388.631 431.038 389.26 431.667 389.386 432.316L390.756 439.367C390.883 440.016 390.459 440.44 389.81 440.314L379.821 438.372C379.172 438.246 378.543 437.617 378.417 436.968L377.047 429.917Z" fill="#424242"/>
<path d="M391.41 428.186C391.284 427.537 391.708 427.113 392.357 427.24L402.346 429.181C402.995 429.307 403.623 429.936 403.749 430.585L406.947 447.037C407.073 447.686 406.65 448.11 406.001 447.984L396.012 446.042C395.363 445.916 394.734 445.288 394.608 444.639L391.41 428.186Z" fill="#424242"/>
<path d="M407.601 435.857C407.475 435.207 407.899 434.784 408.548 434.91L418.536 436.851C419.185 436.978 419.814 437.606 419.94 438.255L421.311 445.306C421.437 445.955 421.013 446.379 420.364 446.253L410.375 444.311C409.726 444.185 409.098 443.556 408.971 442.907L407.601 435.857Z" fill="#424242"/>
<path d="M379.445 442.257C379.319 441.608 379.743 441.184 380.392 441.31L390.381 443.251C391.03 443.378 391.658 444.006 391.784 444.655L393.155 451.706C393.281 452.355 392.857 452.779 392.208 452.653L382.219 450.711C381.57 450.585 380.942 449.957 380.816 449.308L379.445 442.257Z" fill="#424242"/>
<path d="M399.161 450.612C399.035 449.963 399.459 449.539 400.108 449.665L403.046 450.236C403.695 450.363 404.324 450.991 404.45 451.64L404.907 453.99C405.033 454.639 404.609 455.063 403.96 454.937L401.022 454.366C400.373 454.24 399.745 453.611 399.618 452.962L399.161 450.612Z" fill="#424242"/>
<path d="M409.915 447.763C409.827 447.309 410.007 446.947 410.379 446.832L414.911 445.424C415.201 445.334 415.572 445.406 415.921 445.621L421.378 448.97C421.825 449.244 422.166 449.708 422.254 450.161L423.709 457.645C423.835 458.294 423.411 458.718 422.762 458.592L412.774 456.65C412.125 456.524 411.496 455.896 411.37 455.247L409.915 447.763Z" fill="#424242"/>
<g filter="url(#filter0_b_18_11)">
<rect width="412.27" height="260.381" rx="34.7175" transform="matrix(1 0 0.0348995 0.999391 20.8482 2.00024)" fill="white" fill-opacity="0.1"/>
<rect width="412.27" height="260.381" rx="34.7175" transform="matrix(1 0 0.0348995 0.999391 20.8482 2.00024)" stroke="url(#paint1_linear_18_11)" stroke-opacity="0.5" stroke-width="2.16984"/>
</g>
<path d="M72.2749 196.724L71.8879 185.643H73.908L79.1525 193.597H79.1829L78.9052 185.643H80.7886L81.1755 196.724H79.1554L73.9261 188.77H73.8957L74.1735 196.724H72.2749ZM85.4041 196.876C84.6142 196.876 83.9841 196.663 83.5136 196.238C83.0528 195.803 82.8096 195.216 82.7838 194.477C82.7516 193.556 83.0863 192.848 83.788 192.352C84.4896 191.856 85.5037 191.608 86.8302 191.608H87.9389C87.9255 191.224 87.8646 190.93 87.7563 190.728C87.6578 190.515 87.4906 190.369 87.2549 190.288C87.0293 190.207 86.7089 190.166 86.2937 190.166C85.7875 190.166 85.2627 190.217 84.7194 190.318C84.1863 190.419 83.6853 190.571 83.2164 190.773L82.922 189.301C83.4317 189.109 83.9985 188.957 84.6224 188.846C85.2463 188.734 85.8722 188.679 86.5 188.679C87.3 188.679 87.9311 188.775 88.3935 188.967C88.866 189.159 89.2115 189.483 89.4299 189.939C89.6483 190.394 89.7706 190.996 89.7968 191.745L89.9706 196.724H88.1935L88.1465 195.813H88.1162C87.8537 196.127 87.4678 196.385 86.9585 196.587C86.4487 196.78 85.9306 196.876 85.4041 196.876ZM86.0215 195.418C86.3962 195.418 86.7381 195.353 87.0474 195.221C87.3564 195.079 87.5979 194.892 87.7721 194.659C87.9462 194.427 88.0282 194.164 88.0179 193.87L87.9845 192.914H87.1491C86.2783 192.914 85.6242 193.03 85.1868 193.263C84.7591 193.486 84.5534 193.83 84.5697 194.295C84.5817 194.639 84.7128 194.912 84.9629 195.115C85.2129 195.317 85.5658 195.418 86.0215 195.418ZM91.9701 196.724L91.6945 188.83H93.426L93.4887 189.756H93.5191C93.7906 189.412 94.1206 189.149 94.5092 188.967C94.8974 188.775 95.3547 188.679 95.8813 188.679C96.3977 188.679 96.8365 188.775 97.1976 188.967C97.5685 189.149 97.8359 189.412 97.9998 189.756H98.0302C98.3209 189.382 98.6607 189.109 99.0496 188.937C99.4385 188.765 99.9013 188.679 100.438 188.679C101.289 188.679 101.914 188.906 102.315 189.362C102.715 189.807 102.932 190.51 102.966 191.472L103.149 196.724H101.342L101.174 191.927C101.153 191.33 101.042 190.895 100.84 190.622C100.638 190.348 100.324 190.212 99.8991 190.212C99.3928 190.212 98.9987 190.379 98.7167 190.713C98.4347 191.047 98.3034 191.492 98.3229 192.049L98.4861 196.724H96.6635L96.4912 191.791C96.4732 191.274 96.3532 190.885 96.1314 190.622C95.9092 190.348 95.6007 190.212 95.2058 190.212C94.902 190.212 94.6263 190.293 94.3789 190.455C94.1415 190.617 93.9516 190.834 93.8093 191.107C93.6771 191.381 93.6171 191.694 93.6295 192.049L93.7928 196.724H91.9701ZM108.959 196.876C107.562 196.876 106.476 196.522 105.702 195.813C104.928 195.105 104.518 194.093 104.472 192.777C104.427 191.502 104.737 190.5 105.4 189.772C106.073 189.043 107.012 188.679 108.217 188.679C109.382 188.679 110.295 189.023 110.957 189.711C111.619 190.399 111.972 191.376 112.016 192.641C112.021 192.782 112.021 192.939 112.017 193.111C112.013 193.283 112.007 193.41 112 193.491H105.53L105.483 192.14H110.525L110.266 192.549C110.237 191.72 110.054 191.107 109.716 190.713C109.388 190.308 108.905 190.106 108.267 190.106C107.589 190.106 107.08 190.318 106.74 190.743C106.41 191.158 106.26 191.775 106.288 192.595L106.307 193.126C106.334 193.895 106.556 194.467 106.974 194.842C107.392 195.206 108.011 195.388 108.831 195.388C109.256 195.388 109.711 195.348 110.194 195.267C110.677 195.176 111.103 195.059 111.473 194.918L111.752 196.375C111.372 196.527 110.936 196.648 110.443 196.739C109.95 196.83 109.455 196.876 108.959 196.876Z" fill="#EDEDED"/>
<path d="M74.4841 111.218C73.2791 111.218 72.2333 110.991 71.3465 110.535C70.4598 110.08 69.7687 109.427 69.2732 108.577C68.7879 107.727 68.5245 106.71 68.4832 105.526C68.4415 104.332 68.6338 103.315 69.0601 102.475C69.4962 101.625 70.1418 100.972 70.9967 100.517C71.8516 100.061 72.8816 99.8337 74.0865 99.8337C75.4637 99.8337 76.6943 100.132 77.7783 100.729L77.3962 102.399C76.3428 101.812 75.2795 101.519 74.2061 101.519C73.4062 101.519 72.7182 101.681 72.1422 102.004C71.5659 102.318 71.1312 102.774 70.8381 103.371C70.5451 103.968 70.4132 104.686 70.4425 105.526C70.4715 106.356 70.6536 107.074 70.9887 107.682C71.3234 108.279 71.7901 108.739 72.3887 109.063C72.987 109.377 73.6861 109.534 74.486 109.534C75.529 109.534 76.5718 109.24 77.6146 108.653L78.1134 110.323C77.071 110.92 75.8612 111.218 74.4841 111.218ZM79.9907 111.067L79.7151 103.173H81.5074L81.5745 104.661H81.6049C81.8561 104.317 82.1547 104.023 82.5007 103.78C82.8564 103.527 83.2498 103.34 83.681 103.219C84.1118 103.087 84.5652 103.021 85.0411 103.021L85.0973 104.631C84.4593 104.631 83.8813 104.752 83.3633 104.995C82.8553 105.238 82.4516 105.567 82.1522 105.981C81.8626 106.386 81.7266 106.842 81.7443 107.348L81.8741 111.067H79.9907ZM90.0379 111.218C88.6405 111.218 87.5548 110.864 86.7807 110.156C86.0067 109.448 85.5967 108.436 85.5507 107.12C85.5062 105.845 85.8155 104.843 86.4786 104.114C87.1519 103.386 88.091 103.021 89.296 103.021C90.4605 103.021 91.3737 103.366 92.0356 104.054C92.6976 104.742 93.0507 105.718 93.0949 106.983C93.0998 107.125 93.1002 107.282 93.0961 107.454C93.092 107.626 93.0863 107.752 93.079 107.833H86.6085L86.5613 106.482H91.604L91.3449 106.892C91.316 106.062 91.1326 105.45 90.7948 105.056C90.4667 104.651 89.9837 104.448 89.3458 104.448C88.6674 104.448 88.1584 104.661 87.8188 105.086C87.489 105.501 87.3384 106.118 87.367 106.938L87.3856 107.469C87.4125 108.238 87.6349 108.81 88.0531 109.184C88.4708 109.549 89.0898 109.731 89.91 109.731C90.3353 109.731 90.7895 109.69 91.2728 109.609C91.7556 109.518 92.1819 109.402 92.5516 109.26L92.8303 110.718C92.4509 110.869 92.0146 110.991 91.5216 111.082C91.0286 111.173 90.5341 111.218 90.0379 111.218ZM97.7572 111.218C96.7041 111.218 95.8713 110.859 95.2589 110.141C94.6465 109.422 94.3177 108.415 94.2725 107.12C94.2273 105.825 94.4857 104.818 95.048 104.099C95.6102 103.381 96.4178 103.021 97.4709 103.021C97.9975 103.021 98.4766 103.113 98.9082 103.295C99.3399 103.477 99.7087 103.745 100.015 104.099H100.06L99.9166 99.9855H101.754L102.141 111.067H100.395L100.332 110.141H100.302C100.02 110.485 99.6547 110.753 99.2058 110.945C98.7666 111.127 98.2837 111.218 97.7572 111.218ZM98.1902 109.701C98.5851 109.701 98.9316 109.62 99.2298 109.458C99.538 109.296 99.7783 109.073 99.9507 108.79C100.123 108.506 100.203 108.188 100.191 107.833L100.141 106.407C100.128 106.042 100.026 105.723 99.8341 105.45C99.6419 105.167 99.3911 104.944 99.0817 104.782C98.7722 104.62 98.415 104.539 98.01 104.539C97.372 104.539 96.8836 104.762 96.5448 105.207C96.2161 105.653 96.0662 106.29 96.0952 107.12C96.1241 107.95 96.3185 108.587 96.6784 109.033C97.0483 109.478 97.5523 109.701 98.1902 109.701ZM104.173 101.777L104.111 99.9855H105.994L106.057 101.777H104.173ZM104.498 111.067L104.223 103.219H106.107L106.381 111.067H104.498ZM112.282 111.218C111.35 111.218 110.67 111.026 110.241 110.642C109.813 110.257 109.583 109.63 109.553 108.759L109.41 104.661H107.648L107.596 103.173H109.358L109.268 100.593H111.151L111.241 103.173H113.899L113.951 104.661H111.293L111.42 108.289C111.437 108.795 111.531 109.149 111.7 109.351C111.879 109.544 112.181 109.64 112.606 109.64C112.829 109.64 113.061 109.62 113.303 109.579C113.544 109.539 113.76 109.483 113.95 109.412L114.171 110.945C113.83 111.046 113.508 111.117 113.206 111.158C112.904 111.198 112.595 111.218 112.282 111.218ZM125.569 111.218C124.364 111.218 123.318 110.991 122.431 110.535C121.544 110.08 120.853 109.427 120.358 108.577C119.872 107.727 119.609 106.71 119.568 105.526C119.526 104.332 119.718 103.315 120.145 102.475C120.581 101.625 121.226 100.972 122.081 100.517C122.936 100.061 123.966 99.8337 125.171 99.8337C126.548 99.8337 127.779 100.132 128.863 100.729L128.481 102.399C127.427 101.812 126.364 101.519 125.291 101.519C124.491 101.519 123.803 101.681 123.227 102.004C122.65 102.318 122.216 102.774 121.923 103.371C121.63 103.968 121.498 104.686 121.527 105.526C121.556 106.356 121.738 107.074 122.073 107.682C122.408 108.279 122.875 108.739 123.473 109.063C124.071 109.377 124.771 109.534 125.571 109.534C126.613 109.534 127.656 109.24 128.699 108.653L129.198 110.323C128.155 110.92 126.946 111.218 125.569 111.218ZM132.875 111.218C132.085 111.218 131.455 111.006 130.984 110.581C130.524 110.146 130.28 109.559 130.255 108.82C130.222 107.899 130.557 107.191 131.259 106.695C131.96 106.199 132.975 105.951 134.301 105.951H135.41C135.396 105.567 135.336 105.273 135.227 105.071C135.129 104.858 134.961 104.711 134.726 104.631C134.5 104.55 134.18 104.509 133.765 104.509C133.258 104.509 132.734 104.56 132.19 104.661C131.657 104.762 131.156 104.914 130.687 105.116L130.393 103.644C130.903 103.452 131.469 103.3 132.093 103.188C132.717 103.077 133.343 103.021 133.971 103.021C134.771 103.021 135.402 103.118 135.864 103.31C136.337 103.502 136.682 103.826 136.901 104.281C137.119 104.737 137.241 105.339 137.268 106.088L137.441 111.067H135.664L135.617 110.156H135.587C135.325 110.47 134.939 110.728 134.429 110.93C133.92 111.122 133.401 111.218 132.875 111.218ZM133.492 109.761C133.867 109.761 134.209 109.695 134.518 109.564C134.827 109.422 135.069 109.235 135.243 109.002C135.417 108.769 135.499 108.506 135.489 108.213L135.455 107.257H134.62C133.749 107.257 133.095 107.373 132.658 107.606C132.23 107.828 132.024 108.172 132.041 108.638C132.053 108.982 132.184 109.255 132.434 109.458C132.684 109.66 133.037 109.761 133.492 109.761ZM139.441 111.067L139.165 103.173H140.958L141.025 104.661H141.055C141.306 104.317 141.605 104.023 141.951 103.78C142.307 103.527 142.7 103.34 143.131 103.219C143.562 103.087 144.015 103.021 144.491 103.021L144.548 104.631C143.91 104.631 143.332 104.752 142.814 104.995C142.306 105.238 141.902 105.567 141.602 105.981C141.313 106.386 141.177 106.842 141.195 107.348L141.324 111.067H139.441ZM148.486 111.218C147.433 111.218 146.6 110.859 145.987 110.141C145.375 109.422 145.046 108.415 145.001 107.12C144.956 105.825 145.214 104.818 145.776 104.099C146.339 103.381 147.146 103.021 148.199 103.021C148.726 103.021 149.205 103.113 149.637 103.295C150.068 103.477 150.437 103.745 150.743 104.099H150.789L150.645 99.9855H152.483L152.87 111.067H151.123L151.061 110.141H151.03C150.749 110.485 150.383 110.753 149.934 110.945C149.495 111.127 149.012 111.218 148.486 111.218ZM148.919 109.701C149.314 109.701 149.66 109.62 149.958 109.458C150.267 109.296 150.507 109.073 150.679 108.79C150.852 108.506 150.932 108.188 150.919 107.833L150.869 106.407C150.857 106.042 150.754 105.723 150.563 105.45C150.37 105.167 150.12 104.944 149.81 104.782C149.501 104.62 149.144 104.539 148.738 104.539C148.101 104.539 147.612 104.762 147.273 105.207C146.945 105.653 146.795 106.29 146.824 107.12C146.853 107.95 147.047 108.587 147.407 109.033C147.777 109.478 148.281 109.701 148.919 109.701ZM159.439 111.067L159.052 99.9855H161.072L166.316 107.94H166.347L166.069 99.9855H167.952L168.339 111.067H166.319L161.09 103.113H161.059L161.337 111.067H159.439ZM174.132 111.218C172.856 111.218 171.857 110.864 171.133 110.156C170.42 109.437 170.04 108.425 169.994 107.12C169.949 105.815 170.258 104.808 170.922 104.099C171.595 103.381 172.57 103.021 173.846 103.021C175.122 103.021 176.122 103.381 176.845 104.099C177.569 104.808 177.953 105.815 177.999 107.12C178.045 108.425 177.731 109.437 177.057 110.156C176.383 110.864 175.408 111.218 174.132 111.218ZM174.08 109.731C174.779 109.731 175.303 109.513 175.652 109.078C176.001 108.633 176.161 107.98 176.131 107.12C176.101 106.26 175.896 105.612 175.516 105.177C175.136 104.732 174.597 104.509 173.898 104.509C173.209 104.509 172.686 104.732 172.326 105.177C171.977 105.612 171.817 106.26 171.847 107.12C171.878 107.98 172.083 108.633 172.463 109.078C172.853 109.513 173.392 109.731 174.08 109.731ZM179.614 111.067L179.539 108.926H181.696L181.771 111.067H179.614Z" fill="#EDEDED"/>
<path d="M205.569 192.386L205.182 181.305H212.594L212.652 182.945H207.138L207.238 185.799H212.447L212.504 187.408H207.294L207.41 190.747H212.924L212.981 192.386H205.569ZM214.198 192.386L216.566 188.409L213.953 184.493H216.019L217.793 187.438H217.823L219.391 184.493H221.457L219.118 188.409L221.763 192.386H219.697L217.891 189.396H217.861L216.279 192.386H214.198ZM227.445 184.341C228.498 184.341 229.331 184.701 229.943 185.419C230.556 186.138 230.884 187.144 230.93 188.44C230.975 189.735 230.716 190.742 230.154 191.461C229.592 192.179 228.784 192.538 227.731 192.538C227.215 192.538 226.736 192.447 226.294 192.265C225.862 192.073 225.493 191.805 225.187 191.461H225.157L225.301 195.574H223.433L223.046 184.493H224.823L224.87 185.419H224.901C225.192 185.065 225.557 184.797 225.996 184.615C226.436 184.432 226.918 184.341 227.445 184.341ZM227.012 185.859C226.627 185.859 226.281 185.94 225.972 186.102C225.664 186.264 225.424 186.487 225.252 186.77C225.089 187.043 225.014 187.362 225.027 187.726L225.077 189.153C225.089 189.507 225.186 189.826 225.368 190.11C225.56 190.393 225.816 190.616 226.136 190.777C226.455 190.939 226.807 191.02 227.192 191.02C227.84 191.02 228.329 190.798 228.657 190.352C228.986 189.907 229.136 189.27 229.107 188.44C229.078 187.61 228.884 186.972 228.524 186.527C228.164 186.082 227.66 185.859 227.012 185.859ZM232.553 192.386L232.478 190.246H234.635L234.71 192.386H232.553Z" fill="#EDEDED"/>
<path d="M210.652 222.046C209.385 222.046 208.429 221.647 207.785 220.849C207.141 220.051 206.79 218.824 206.732 217.167C206.674 215.51 206.94 214.283 207.528 213.485C208.116 212.687 209.044 212.288 210.311 212.288C211.578 212.288 212.53 212.687 213.165 213.485C213.809 214.283 214.16 215.51 214.218 217.167C214.276 218.824 214.011 220.051 213.422 220.849C212.843 221.647 211.919 222.046 210.652 222.046ZM210.602 220.602C211.322 220.602 211.837 220.324 212.148 219.769C212.458 219.214 212.593 218.347 212.552 217.167C212.51 215.979 212.315 215.111 211.966 214.565C211.617 214.009 211.082 213.732 210.362 213.732C209.641 213.732 209.122 214.009 208.802 214.565C208.492 215.111 208.357 215.979 208.399 217.167C208.44 218.347 208.635 219.214 208.984 219.769C209.342 220.324 209.881 220.602 210.602 220.602ZM218.677 212.288C219.458 212.288 220.123 212.426 220.67 212.704C221.218 212.982 221.636 213.389 221.924 213.927C222.22 214.465 222.383 215.133 222.411 215.931C222.452 217.128 222.254 218.173 221.817 219.066C221.388 219.951 220.753 220.649 219.911 221.161C219.07 221.673 218.047 221.964 216.843 222.033L216.511 220.719C217.585 220.658 218.454 220.428 219.117 220.029C219.779 219.622 220.258 219.027 220.552 218.247L220.525 218.234C220.219 218.416 219.89 218.555 219.537 218.65C219.193 218.746 218.813 218.793 218.396 218.793C217.433 218.793 216.664 218.511 216.089 217.948C215.522 217.384 215.221 216.603 215.187 215.606C215.162 214.912 215.285 214.317 215.554 213.823C215.823 213.329 216.222 212.951 216.751 212.691C217.28 212.422 217.922 212.288 218.677 212.288ZM218.726 213.68C218.083 213.68 217.595 213.849 217.259 214.187C216.932 214.517 216.779 214.981 216.8 215.579C216.821 216.178 216.998 216.646 217.331 216.985C217.672 217.314 218.147 217.479 218.754 217.479C219.188 217.479 219.559 217.41 219.867 217.271C220.174 217.123 220.405 216.911 220.56 216.633C220.724 216.347 220.799 216.013 220.786 215.632C220.774 215.293 220.693 214.977 220.544 214.682C220.404 214.387 220.183 214.148 219.881 213.966C219.588 213.775 219.203 213.68 218.726 213.68ZM223.361 222.436L227.628 211.897H229.216L224.95 222.436H223.361ZM234.239 221.916L233.971 214.239H233.945L230.681 216.204L230.163 214.786L233.908 212.418H235.561L235.893 221.916H234.239ZM242.605 221.916L242.337 214.239H242.311L239.047 216.204L238.529 214.786L242.274 212.418H243.927L244.259 221.916H242.605Z" fill="white"/>
<path d="M73.0307 221.916L72.699 212.418H75.5632C76.9606 212.418 77.9883 212.643 78.6463 213.094C79.313 213.545 79.6635 214.261 79.6977 215.241C79.7314 216.204 79.444 216.924 78.8358 217.401C78.2362 217.878 77.3028 218.117 76.0356 218.117H73.6141L73.5705 216.868H75.7837C76.669 216.868 77.3027 216.746 77.6848 216.503C78.0753 216.252 78.2608 215.848 78.2414 215.293C78.222 214.738 78.0085 214.339 77.6007 214.096C77.2014 213.845 76.5591 213.719 75.6738 213.719H74.1766L74.4628 221.916H73.0307ZM78.5899 221.916L74.1288 217.57H75.9385L80.4516 221.916H78.5899ZM82.0068 221.916L81.6751 212.418H87.9242L87.9687 213.693H83.1517L83.2435 216.321H87.8001L87.8438 217.57H83.2871L83.3943 220.641H88.2114L88.2559 221.916H82.0068ZM96.1039 221.916L95.7723 212.418H97.2044L97.536 221.916H96.1039ZM90.2454 221.916L89.9137 212.418H91.3458L91.6775 221.916H90.2454ZM90.8106 217.596L90.7651 216.295H96.6237L96.6691 217.596H90.8106ZM98.818 221.916L101.949 212.418H103.889L107.671 221.916H106.096L102.969 213.641H102.942L100.393 221.916H98.818ZM100.531 219.535L100.486 218.234H105.759L105.804 219.535H100.531ZM108.948 221.916L108.616 212.418H110.178L114.959 219.574H114.985L114.735 212.418H116.167L116.499 221.916H114.936L110.156 214.76H110.13L110.38 221.916H108.948ZM122.361 221.916L122.029 212.418H124.893C126.291 212.418 127.318 212.643 127.976 213.094C128.643 213.545 128.993 214.261 129.028 215.241C129.061 216.204 128.774 216.924 128.166 217.401C127.566 217.878 126.633 218.117 125.366 218.117H122.944L122.9 216.868H125.114C125.999 216.868 126.633 216.746 127.015 216.503C127.405 216.252 127.591 215.848 127.571 215.293C127.552 214.738 127.338 214.339 126.931 214.096C126.531 213.845 125.889 213.719 125.004 213.719H123.507L123.793 221.916H122.361ZM127.92 221.916L123.459 217.57H125.268L129.782 221.916H127.92ZM130.399 221.916L133.531 212.418H135.471L139.252 221.916H137.677L134.55 213.641H134.524L131.975 221.916H130.399ZM132.113 219.535L132.067 218.234H137.34L137.386 219.535H132.113ZM140.646 221.916L140.314 212.418H141.799L142.13 221.916H140.646ZM150.316 221.916L149.984 212.418H151.416L151.748 221.916H150.316ZM144.457 221.916L144.126 212.418H145.558L145.89 221.916H144.457ZM145.023 217.596L144.977 216.295H150.836L150.881 217.596H145.023ZM153.03 221.916L156.162 212.418H158.101L161.883 221.916H160.308L157.181 213.641H157.155L154.605 221.916H153.03ZM154.744 219.535L154.698 218.234H159.971L160.016 219.535H154.744ZM163.16 221.916L162.828 212.418H164.39L169.171 219.574H169.197L168.947 212.418H170.379L170.711 221.916H169.148L164.368 214.76H164.342L164.592 221.916H163.16Z" fill="white"/>
<path fill-rule="evenodd" clip-rule="evenodd" d="M85.6737 52.7835C88.1798 50.4052 89.6835 46.9932 89.5511 43.2015C89.4187 39.4099 87.6767 35.9979 85.0044 33.6196C87.2478 31.4909 90.2956 30.1904 93.6917 30.1904C100.882 30.1904 106.914 36.0158 107.165 43.2015C107.416 50.3873 101.791 56.2127 94.6004 56.2127C91.2043 56.2127 88.0657 54.9121 85.6737 52.7835ZM85.6737 52.7835C83.4303 54.9121 80.3825 56.2127 76.9864 56.2127C69.7963 56.2127 63.7639 50.3873 63.513 43.2015C63.2621 36.0158 68.8876 30.1904 76.0777 30.1904C79.4738 30.1904 82.6124 31.4909 85.0044 33.6196C82.4983 35.9979 80.9946 39.4099 81.127 43.2015C81.2594 46.9932 83.0015 50.4052 85.6737 52.7835Z" fill="white"/>
<path fill-rule="evenodd" clip-rule="evenodd" d="M398.65 30.4425C399.242 30.0084 400.092 30.1489 400.548 30.7563C402.973 33.9905 405.925 39.5066 406.948 45.6507C407.978 51.8369 407.057 58.7427 401.588 64.4845C401.082 65.0159 400.225 65.0215 399.675 64.4971C399.125 63.9726 399.09 63.1167 399.596 62.5854C404.366 57.5776 405.207 51.5798 404.278 46.0033C403.342 40.3848 400.615 35.2794 398.402 32.3283C397.946 31.7209 398.057 30.8766 398.65 30.4425ZM392.96 35.4003C393.552 34.9653 394.402 35.1045 394.858 35.7113C396.57 37.9872 398.648 41.858 399.37 46.1806C400.098 50.5457 399.447 55.4532 395.552 59.5294C395.045 60.0599 394.188 60.0642 393.639 59.539C393.09 59.0137 393.056 58.1578 393.563 57.6273C396.757 54.2848 397.327 50.2869 396.7 46.5342C396.066 42.7389 394.214 39.2794 392.715 37.2866C392.258 36.6798 392.368 35.8353 392.96 35.4003ZM388.635 40.8113C389.225 40.3734 390.075 40.5086 390.534 41.1133C391.469 42.3436 392.595 44.4204 392.989 46.7574C393.389 49.1389 393.031 51.8681 390.85 54.127C390.34 54.6549 389.483 54.6549 388.937 54.127C388.39 53.5991 388.36 52.7432 388.87 52.2153C390.344 50.6891 390.616 48.8748 390.32 47.1145C390.016 45.3098 389.118 43.6466 388.399 42.699C387.939 42.0943 388.045 41.2491 388.635 40.8113ZM385.115 46.4121C384.617 46.4121 384.227 46.8156 384.245 47.3133C384.262 47.811 384.68 48.2145 385.178 48.2145C385.676 48.2145 386.066 47.811 386.048 47.3133C386.031 46.8156 385.613 46.4121 385.115 46.4121ZM381.539 47.3133C381.47 45.3225 383.028 43.7085 385.021 43.7085C387.013 43.7085 388.684 45.3225 388.753 47.3133C388.823 49.3042 387.264 50.9181 385.272 50.9181C383.28 50.9181 381.609 49.3042 381.539 47.3133Z" fill="white"/>
<path d="M72.5986 145.508L72.1707 133.256H72.1273L67.6194 137.137L67.4952 133.581L72.0458 129.678H75.1703L75.7232 145.508H72.5986ZM83.3686 145.725C82.1535 145.725 81.1697 145.515 80.4173 145.096C79.6794 144.677 79.1274 143.99 78.7614 143.036C78.4098 142.082 78.2063 140.81 78.1508 139.219C78.0725 136.978 78.298 135.15 78.8271 133.733C79.3557 132.302 80.2155 131.239 81.4064 130.545C82.5973 129.851 84.1469 129.49 86.0554 129.461L86.1493 132.15C85.2813 132.15 84.5052 132.294 83.821 132.584C83.1362 132.858 82.5927 133.241 82.1904 133.733C81.788 134.224 81.5695 134.803 81.5349 135.468H81.6217C82.0191 135.251 82.3972 135.099 82.7558 135.012C83.1144 134.926 83.5035 134.882 83.923 134.882C85.3117 134.882 86.3464 135.309 87.0271 136.162C87.7218 137 88.1002 138.308 88.1623 140.087C88.2325 142.096 87.8924 143.542 87.1421 144.424C86.4057 145.291 85.1478 145.725 83.3686 145.725ZM83.2994 143.123C83.9503 143.123 84.4196 142.891 84.7073 142.429C84.9944 141.952 85.1208 141.222 85.0864 140.238C85.0521 139.255 84.875 138.533 84.555 138.07C84.2346 137.593 83.7489 137.354 83.098 137.354C82.447 137.354 81.978 137.593 81.6909 138.07C81.4032 138.533 81.2766 139.255 81.3109 140.238C81.3452 141.222 81.5226 141.952 81.8431 142.429C82.163 142.891 82.6484 143.123 83.2994 143.123ZM93.9709 138.655C93.508 138.655 93.1343 138.518 92.8499 138.243C92.5655 137.969 92.4154 137.607 92.3998 137.159C92.3836 136.697 92.5084 136.335 92.7742 136.075C93.0394 135.8 93.4035 135.663 93.8664 135.663C94.3293 135.663 94.703 135.8 94.9874 136.075C95.2713 136.335 95.4214 136.697 95.4375 137.159C95.4532 137.607 95.3284 137.969 95.0631 138.243C94.7979 138.518 94.4338 138.655 93.9709 138.655ZM94.2178 145.725C93.0171 145.725 92.0541 145.486 91.3286 145.009C90.6026 144.518 90.0613 143.723 89.7047 142.624C89.3481 141.525 89.138 140.065 89.0744 138.243L89.0289 136.942C88.9648 135.106 89.073 133.646 89.3533 132.562C89.6332 131.463 90.1192 130.675 90.8114 130.198C91.503 129.707 92.4492 129.461 93.6498 129.461C94.836 129.461 95.7921 129.707 96.5181 130.198C97.258 130.675 97.8063 131.463 98.1629 132.562C98.519 133.646 98.7291 135.106 98.7932 136.942L98.8387 138.243C98.9023 140.065 98.7941 141.525 98.5143 142.624C98.2344 143.723 97.7414 144.518 97.0353 145.009C96.3431 145.486 95.404 145.725 94.2178 145.725ZM94.1239 143.036C94.6157 143.036 94.98 142.906 95.2169 142.646C95.4537 142.385 95.6031 141.901 95.6652 141.193C95.7412 140.47 95.755 139.414 95.7065 138.027L95.6762 137.159C95.6278 135.771 95.5405 134.723 95.4145 134.015C95.3025 133.292 95.119 132.8 94.864 132.54C94.609 132.28 94.2356 132.15 93.7437 132.15C93.2664 132.15 92.902 132.28 92.6507 132.54C92.4139 132.8 92.2575 133.292 92.1815 134.015C92.1194 134.723 92.1126 135.771 92.1611 137.159L92.1914 138.027C92.2398 139.414 92.3201 140.47 92.4321 141.193C92.5581 141.901 92.7486 142.385 93.0036 142.646C93.2731 142.906 93.6465 143.036 94.1239 143.036ZM100.629 142.906C101.576 141.85 102.375 140.911 103.026 140.087C103.676 139.248 104.2 138.496 104.596 137.831C104.992 137.152 105.274 136.538 105.443 135.988C105.612 135.439 105.688 134.918 105.671 134.427C105.644 133.661 105.458 133.097 105.112 132.735C104.767 132.374 104.24 132.193 103.531 132.193C102.605 132.193 101.523 132.461 100.283 132.996L100.184 130.177C101.253 129.699 102.568 129.461 104.13 129.461C105.707 129.461 106.877 129.837 107.641 130.589C108.405 131.326 108.814 132.49 108.87 134.08C108.893 134.745 108.823 135.424 108.659 136.118C108.509 136.798 108.259 137.499 107.908 138.222C107.557 138.945 107.113 139.689 106.575 140.455C106.053 141.222 105.422 142.009 104.683 142.819L104.686 142.906H109.308L109.399 145.508H100.72L100.629 142.906ZM137.368 138.655C136.905 138.655 136.531 138.518 136.247 138.243C135.962 137.969 135.812 137.607 135.797 137.159C135.78 136.697 135.905 136.335 136.171 136.075C136.436 135.8 136.8 135.663 137.263 135.663C137.726 135.663 138.1 135.8 138.384 136.075C138.668 136.335 138.818 136.697 138.834 137.159C138.85 137.607 138.725 137.969 138.46 138.243C138.195 138.518 137.831 138.655 137.368 138.655ZM137.615 145.725C136.414 145.725 135.451 145.486 134.725 145.009C133.999 144.518 133.458 143.723 133.102 142.624C132.745 141.525 132.535 140.065 132.471 138.243L132.426 136.942C132.362 135.106 132.47 133.646 132.75 132.562C133.03 131.463 133.516 130.675 134.208 130.198C134.9 129.707 135.846 129.461 137.047 129.461C138.233 129.461 139.189 129.707 139.915 130.198C140.655 130.675 141.203 131.463 141.56 132.562C141.916 133.646 142.126 135.106 142.19 136.942L142.235 138.243C142.299 140.065 142.191 141.525 141.911 142.624C141.631 143.723 141.138 144.518 140.432 145.009C139.74 145.486 138.801 145.725 137.615 145.725ZM137.521 143.036C138.013 143.036 138.377 142.906 138.614 142.646C138.851 142.385 139 141.901 139.062 141.193C139.138 140.47 139.152 139.414 139.103 138.027L139.073 137.159C139.025 135.771 138.937 134.723 138.811 134.015C138.699 133.292 138.516 132.8 138.261 132.54C138.006 132.28 137.632 132.15 137.141 132.15C136.663 132.15 136.299 132.28 136.048 132.54C135.811 132.8 135.654 133.292 135.578 134.015C135.516 134.723 135.509 135.771 135.558 137.159L135.588 138.027C135.637 139.414 135.717 140.47 135.829 141.193C135.955 141.901 136.145 142.385 136.4 142.646C136.67 142.906 137.043 143.036 137.521 143.036ZM147.896 129.461C149.125 129.461 150.109 129.671 150.847 130.09C151.585 130.509 152.13 131.196 152.481 132.15C152.847 133.104 153.058 134.376 153.114 135.966C153.191 138.193 152.966 140.022 152.437 141.453C151.909 142.884 151.049 143.947 149.858 144.641C148.682 145.334 147.132 145.696 145.209 145.725L145.115 143.036C145.998 143.036 146.774 142.899 147.444 142.624C148.128 142.335 148.672 141.944 149.074 141.453C149.476 140.947 149.694 140.369 149.73 139.718H149.643C149.245 139.935 148.867 140.087 148.509 140.173C148.15 140.26 147.761 140.304 147.341 140.304C145.953 140.304 144.911 139.884 144.216 139.046C143.536 138.193 143.164 136.877 143.102 135.099C143.032 133.09 143.365 131.651 144.101 130.784C144.852 129.902 146.117 129.461 147.896 129.461ZM147.965 132.063C147.314 132.063 146.845 132.302 146.558 132.779C146.27 133.241 146.144 133.964 146.178 134.947C146.212 135.93 146.39 136.66 146.71 137.137C147.03 137.6 147.516 137.831 148.166 137.831C148.817 137.831 149.287 137.6 149.574 137.137C149.861 136.66 149.988 135.93 149.954 134.947C149.919 133.964 149.742 133.241 149.422 132.779C149.102 132.302 148.616 132.063 147.965 132.063ZM159.392 145.508L158.964 133.256H158.921L154.413 137.137L154.289 133.581L158.839 129.678H161.964L162.517 145.508H159.392ZM170.241 145.508L169.814 133.256H169.77L165.262 137.137L165.138 133.581L169.689 129.678H172.813L173.366 145.508H170.241ZM198.272 142.906C199.219 141.85 200.017 140.911 200.669 140.087C201.319 139.248 201.843 138.496 202.239 137.831C202.635 137.152 202.917 136.538 203.086 135.988C203.255 135.439 203.331 134.918 203.313 134.427C203.287 133.661 203.101 133.097 202.755 132.735C202.41 132.374 201.883 132.193 201.174 132.193C200.248 132.193 199.165 132.461 197.926 132.996L197.827 130.177C198.895 129.699 200.211 129.461 201.773 129.461C203.35 129.461 204.52 129.837 205.284 130.589C206.048 131.326 206.457 132.49 206.513 134.08C206.536 134.745 206.466 135.424 206.302 136.118C206.152 136.798 205.902 137.499 205.551 138.222C205.2 138.945 204.756 139.689 204.218 140.455C203.695 141.222 203.065 142.009 202.326 142.819L202.329 142.906H206.951L207.042 145.508H198.363L198.272 142.906ZM213.312 138.655C212.849 138.655 212.476 138.518 212.191 138.243C211.907 137.969 211.757 137.607 211.741 137.159C211.725 136.697 211.85 136.335 212.115 136.075C212.381 135.8 212.745 135.663 213.208 135.663C213.671 135.663 214.044 135.8 214.329 136.075C214.613 136.335 214.763 136.697 214.779 137.159C214.794 137.607 214.67 137.969 214.404 138.243C214.139 138.518 213.775 138.655 213.312 138.655ZM213.559 145.725C212.358 145.725 211.395 145.486 210.67 145.009C209.944 144.518 209.403 143.723 209.046 142.624C208.689 141.525 208.479 140.065 208.416 138.243L208.37 136.942C208.306 135.106 208.414 133.646 208.695 132.562C208.974 131.463 209.46 130.675 210.153 130.198C210.844 129.707 211.79 129.461 212.991 129.461C214.177 129.461 215.133 129.707 215.859 130.198C216.599 130.675 217.148 131.463 217.504 132.562C217.86 133.646 218.07 135.106 218.134 136.942L218.18 138.243C218.244 140.065 218.135 141.525 217.856 142.624C217.576 143.723 217.083 144.518 216.377 145.009C215.684 145.486 214.745 145.725 213.559 145.725ZM213.465 143.036C213.957 143.036 214.321 142.906 214.558 142.646C214.795 142.385 214.944 141.901 215.006 141.193C215.082 140.47 215.096 139.414 215.048 138.027L215.017 137.159C214.969 135.771 214.882 134.723 214.756 134.015C214.644 133.292 214.46 132.8 214.205 132.54C213.95 132.28 213.577 132.15 213.085 132.15C212.608 132.15 212.243 132.28 211.992 132.54C211.755 132.8 211.599 133.292 211.523 134.015C211.461 134.723 211.454 135.771 211.502 137.159L211.533 138.027C211.581 139.414 211.661 140.47 211.773 141.193C211.899 141.901 212.09 142.385 212.345 142.646C212.614 142.906 212.988 143.036 213.465 143.036ZM224.487 145.508L224.06 133.256H224.016L219.508 137.137L219.384 133.581L223.935 129.678H227.059L227.612 145.508H224.487ZM234.689 129.461C235.919 129.461 236.903 129.671 237.641 130.09C238.379 130.509 238.923 131.196 239.275 132.15C239.641 133.104 239.852 134.376 239.907 135.966C239.985 138.193 239.76 140.022 239.231 141.453C238.702 142.884 237.843 143.947 236.652 144.641C235.475 145.334 233.926 145.696 232.003 145.725L231.909 143.036C232.791 143.036 233.568 142.899 234.238 142.624C234.922 142.335 235.465 141.944 235.868 141.453C236.27 140.947 236.488 140.369 236.523 139.718H236.436C236.039 139.935 235.661 140.087 235.302 140.173C234.944 140.26 234.555 140.304 234.135 140.304C232.746 140.304 231.705 139.884 231.01 139.046C230.329 138.193 229.958 136.877 229.896 135.099C229.826 133.09 230.159 131.651 230.895 130.784C231.645 129.902 232.91 129.461 234.689 129.461ZM234.759 132.063C234.108 132.063 233.639 132.302 233.352 132.779C233.064 133.241 232.937 133.964 232.972 134.947C233.006 135.93 233.183 136.66 233.504 137.137C233.824 137.6 234.309 137.831 234.96 137.831C235.611 137.831 236.08 137.6 236.368 137.137C236.655 136.66 236.781 135.93 236.747 134.947C236.713 133.964 236.536 133.241 236.216 132.779C235.895 132.302 235.41 132.063 234.759 132.063ZM263.367 142.906C264.314 141.85 265.113 140.911 265.764 140.087C266.414 139.248 266.938 138.496 267.334 137.831C267.73 137.152 268.012 136.538 268.181 135.988C268.35 135.439 268.426 134.918 268.409 134.427C268.382 133.661 268.196 133.097 267.851 132.735C267.505 132.374 266.978 132.193 266.269 132.193C265.344 132.193 264.261 132.461 263.021 132.996L262.922 130.177C263.991 129.699 265.306 129.461 266.868 129.461C268.445 129.461 269.615 129.837 270.379 130.589C271.143 131.326 271.552 132.49 271.608 134.08C271.631 134.745 271.561 135.424 271.397 136.118C271.247 136.798 270.997 137.499 270.646 138.222C270.295 138.945 269.851 139.689 269.314 140.455C268.791 141.222 268.16 142.009 267.422 142.819L267.425 142.906H272.046L272.137 145.508H263.458L263.367 142.906ZM278.407 138.655C277.945 138.655 277.571 138.518 277.286 138.243C277.002 137.969 276.852 137.607 276.836 137.159C276.82 136.697 276.945 136.335 277.211 136.075C277.476 135.8 277.84 135.663 278.303 135.663C278.766 135.663 279.139 135.8 279.424 136.075C279.708 136.335 279.858 136.697 279.874 137.159C279.89 137.607 279.765 137.969 279.5 138.243C279.234 138.518 278.87 138.655 278.407 138.655ZM278.654 145.725C277.454 145.725 276.491 145.486 275.765 145.009C275.039 144.518 274.498 143.723 274.141 142.624C273.785 141.525 273.574 140.065 273.511 138.243L273.465 136.942C273.401 135.106 273.509 133.646 273.79 132.562C274.07 131.463 274.556 130.675 275.248 130.198C275.94 129.707 276.886 129.461 278.086 129.461C279.273 129.461 280.229 129.707 280.955 130.198C281.695 130.675 282.243 131.463 282.599 132.562C282.956 133.646 283.166 135.106 283.23 136.942L283.275 138.243C283.339 140.065 283.231 141.525 282.951 142.624C282.671 143.723 282.178 144.518 281.472 145.009C280.78 145.486 279.84 145.725 278.654 145.725ZM278.56 143.036C279.052 143.036 279.417 142.906 279.653 142.646C279.89 142.385 280.04 141.901 280.102 141.193C280.178 140.47 280.191 139.414 280.143 138.027L280.113 137.159C280.064 135.771 279.977 134.723 279.851 134.015C279.739 133.292 279.555 132.8 279.3 132.54C279.045 132.28 278.672 132.15 278.18 132.15C277.703 132.15 277.339 132.28 277.087 132.54C276.85 132.8 276.694 133.292 276.618 134.015C276.556 134.723 276.549 135.771 276.598 137.159L276.628 138.027C276.676 139.414 276.757 140.47 276.869 141.193C276.995 141.901 277.185 142.385 277.44 142.646C277.71 142.906 278.083 143.036 278.56 143.036ZM285.065 142.906C286.012 141.85 286.811 140.911 287.462 140.087C288.113 139.248 288.636 138.496 289.033 137.831C289.428 137.152 289.711 136.538 289.88 135.988C290.048 135.439 290.124 134.918 290.107 134.427C290.08 133.661 289.894 133.097 289.549 132.735C289.204 132.374 288.677 132.193 287.968 132.193C287.042 132.193 285.959 132.461 284.719 132.996L284.621 130.177C285.689 129.699 287.004 129.461 288.567 129.461C290.143 129.461 291.314 129.837 292.078 130.589C292.841 131.326 293.251 132.49 293.306 134.08C293.33 134.745 293.259 135.424 293.095 136.118C292.946 136.798 292.695 137.499 292.344 138.222C291.993 138.945 291.549 139.689 291.012 140.455C290.489 141.222 289.858 142.009 289.12 142.819L289.123 142.906H293.745L293.836 145.508H285.156L285.065 142.906ZM300.432 145.508L300.004 133.256H299.961L295.453 137.137L295.329 133.581L299.879 129.678H303.004L303.556 145.508H300.432Z" fill="white"/>
<path d="M370.654 201.616C370.631 200.955 371.149 200.419 371.81 200.419H381.986C382.647 200.419 383.201 200.955 383.224 201.616L383.491 209.235C383.507 209.697 383.256 210.117 382.846 210.315L377.842 212.737C377.522 212.892 377.144 212.892 376.813 212.737L371.641 210.315C371.217 210.117 370.937 209.697 370.92 209.235L370.654 201.616Z" fill="white"/>
<path d="M389.809 201.616C389.786 200.955 390.303 200.419 390.964 200.419H393.957C394.618 200.419 395.173 200.955 395.196 201.616L395.28 204.008C395.303 204.669 394.785 205.205 394.124 205.205H391.131C390.47 205.205 389.915 204.669 389.892 204.008L389.809 201.616Z" fill="white"/>
<path d="M401.78 201.616C401.757 200.955 402.275 200.419 402.936 200.419H413.112C413.773 200.419 414.327 200.955 414.35 201.616L414.601 208.794C414.624 209.455 414.107 209.991 413.446 209.991H403.27C402.609 209.991 402.054 209.455 402.031 208.794L401.78 201.616Z" fill="white"/>
<path d="M371.093 214.178C371.07 213.517 371.587 212.982 372.248 212.982H382.424C383.085 212.982 383.64 213.517 383.663 214.178L383.914 221.357C383.937 222.017 383.42 222.553 382.758 222.553H372.583C371.921 222.553 371.367 222.017 371.344 221.357L371.093 214.178Z" fill="white"/>
<path d="M386.489 209.392C386.466 208.732 386.983 208.196 387.644 208.196H397.82C398.481 208.196 399.036 208.732 399.059 209.392L399.644 226.142C399.667 226.803 399.15 227.339 398.489 227.339H388.313C387.652 227.339 387.097 226.803 387.074 226.142L386.489 209.392Z" fill="white"/>
<path d="M402.219 214.178C402.196 213.517 402.713 212.982 403.374 212.982H413.55C414.211 212.982 414.766 213.517 414.789 214.178L415.04 221.357C415.063 222.017 414.546 222.553 413.884 222.553H403.709C403.047 222.553 402.493 222.017 402.47 221.357L402.219 214.178Z" fill="white"/>
<path d="M371.532 226.741C371.509 226.08 372.026 225.544 372.687 225.544H382.863C383.524 225.544 384.079 226.08 384.102 226.741L384.353 233.919C384.376 234.58 383.858 235.115 383.197 235.115H373.021C372.36 235.115 371.805 234.58 371.782 233.919L371.532 226.741Z" fill="white"/>
<path d="M390.853 231.526C390.83 230.865 391.348 230.33 392.009 230.33H395.002C395.663 230.33 396.217 230.865 396.24 231.526L396.324 233.919C396.347 234.58 395.83 235.115 395.169 235.115H392.176C391.515 235.115 390.96 234.58 390.937 233.919L390.853 231.526Z" fill="white"/>
<path d="M402.642 226.3C402.626 225.838 402.877 225.418 403.287 225.219L408.29 222.798C408.611 222.643 408.989 222.643 409.32 222.798L414.492 225.219C414.916 225.418 415.196 225.838 415.212 226.3L415.479 233.919C415.502 234.58 414.984 235.115 414.323 235.115H404.147C403.486 235.115 402.931 234.58 402.908 233.919L402.642 226.3Z" fill="white"/>
<defs>
<filter id="filter0_b_18_11" x="7.9933" y="-12.0434" width="447.067" height="288.309" filterUnits="userSpaceOnUse" color-interpolation-filters="sRGB">
<feFlood flood-opacity="0" result="BackgroundImageFix"/>
<feGaussianBlur in="BackgroundImageFix" stdDeviation="6.47968"/>
<feComposite in2="SourceAlpha" operator="in" result="effect1_backgroundBlur_18_11"/>
<feBlend mode="normal" in="SourceGraphic" in2="effect1_backgroundBlur_18_11" result="shape"/>
</filter>
<linearGradient id="paint0_linear_18_11" x1="30.3778" y1="11.9341" x2="250.617" y2="260.381" gradientUnits="userSpaceOnUse">
<stop stop-color="white"/>
<stop offset="1" stop-color="white" stop-opacity="0.55"/>
</linearGradient>
<linearGradient id="paint1_linear_18_11" x1="30.3778" y1="11.9341" x2="250.617" y2="260.381" gradientUnits="userSpaceOnUse">
<stop stop-color="white"/>
<stop offset="1" stop-color="white" stop-opacity="0.55"/>
</linearGradient>
</defs>
</svg>
