<svg width="238" height="33" viewBox="0 0 238 33" fill="none" xmlns="http://www.w3.org/2000/svg">
<g clip-path="url(#clip0_1_96)">
<path d="M18.6285 4.32024C18.6285 1.76024 16.1965 1.12024 14.2765 1.12024V1.50424C15.4285 1.50424 16.3245 1.88824 16.3245 2.78424C16.3245 3.29624 15.9405 4.06424 14.7885 4.06424C13.8925 4.06424 11.9725 3.55224 10.5645 3.04024C8.90054 2.40024 7.36454 1.88824 6.08454 1.88824C3.52454 1.88824 1.73254 3.80824 1.73254 5.98424C1.73254 7.90424 3.14054 8.54424 3.65254 8.80024L3.78054 8.54424C3.52454 8.28824 3.14054 8.03224 3.14054 7.26424C3.14054 6.75224 3.65254 5.85624 4.93254 5.85624C6.08454 5.85624 7.62054 6.36824 9.66854 7.00824C11.4605 7.52024 13.3805 7.90424 14.4045 8.03224V12.0003L12.4845 13.6643V13.7923L14.4045 15.4563V20.9603C13.3805 21.6003 12.2285 21.7283 11.2045 21.7283C9.28454 21.7283 7.62054 21.2163 6.21254 19.6803L11.4605 17.1203V8.28824L5.06054 11.1042C5.57254 9.44024 6.98054 8.28824 8.38854 7.52024L8.26054 7.13624C4.42054 8.16024 0.964539 11.7443 0.964539 16.0963C0.964539 21.2163 5.18854 25.0563 9.92454 25.0563C15.0445 25.0563 18.3725 20.9603 18.3725 16.7363H18.1165C17.3485 18.4003 16.1965 19.9363 14.7885 20.7043V15.4563L16.8365 13.7923V13.6643L14.7885 12.0003V8.03224C16.7085 8.03224 18.6285 6.75224 18.6285 4.32024ZM7.49254 18.4003L5.95654 19.1683C5.06054 18.0163 4.54854 16.4803 4.54854 14.3043C4.54854 13.4083 4.54854 12.3843 4.80454 11.6163L7.49254 10.4642V18.4003ZM21.0606 21.3443L19.3966 22.6243L19.6525 22.8803L20.4205 22.2403L23.2366 24.8003L27.0766 22.2403L26.9486 21.9843L25.9246 22.6243L24.6446 21.3443V12.6403L25.6686 11.8723L27.8446 13.6643V21.4723C27.8446 26.3363 26.8206 27.1043 24.6446 27.8723V28.2563C28.2286 28.3843 31.5566 27.2323 31.5566 20.9603V12.5123L32.7086 11.6163L32.4526 11.3603L31.4286 12.1283L28.2286 9.44024L24.6446 12.1283V1.63224H24.3886L19.9086 4.70424V4.96024C20.4206 5.21624 21.1885 5.47224 21.1885 6.88024L21.0606 21.3443ZM44.4846 19.9363L41.2846 22.3683L38.0846 19.8083V18.2723L44.1006 14.1763V14.0483L41.0286 9.44024L34.3726 13.0243V21.4723L33.0926 22.4963L33.3486 22.7523L34.5006 21.8563L38.8526 25.0563L44.6126 20.4483L44.4846 19.9363ZM38.0846 17.7603V11.4883L38.3406 11.3603L41.1566 15.8403L38.0846 17.7603ZM68.9326 3.16824C68.9326 2.78424 68.8046 2.40024 68.6766 2.01624H68.4206C68.0366 3.04024 67.5246 3.55224 66.2446 3.55224C65.0926 3.55224 64.3246 2.91224 63.8126 2.40024L60.1006 6.62424L60.3566 6.88024L61.6366 5.72824C62.4046 6.36824 63.0446 6.88024 64.8366 7.00824V17.6323L57.2846 4.70424C56.6446 3.68024 55.7486 2.27224 53.9566 2.27224C51.9086 2.27224 50.1166 4.06424 50.3726 6.88024H50.7566C50.8846 6.11224 51.2686 5.21624 52.1646 5.21624C52.8046 5.21624 53.4446 5.85624 53.8286 6.49624V10.7202C51.5246 10.7202 49.9886 11.7443 49.9886 13.6643C49.9886 14.6883 50.5006 16.2243 52.0366 16.6083V16.3523C51.7806 16.0963 51.6526 15.8403 51.6526 15.4563C51.6526 14.8163 52.1646 14.3043 53.0606 14.3043H53.7006V19.6803C51.0126 19.6803 48.8366 21.2163 48.8366 23.7763C48.8366 26.2083 50.8846 27.3603 53.1886 27.2323V26.9763C51.7806 26.8483 51.1406 26.2083 51.1406 25.3123C51.1406 24.1603 51.9086 23.6483 52.9326 23.6483C53.9566 23.6483 54.8526 24.2883 55.4926 25.0563L59.2046 20.9603L58.9486 20.7043L58.0526 21.7283C56.6446 20.4483 55.8766 20.0643 54.2126 19.8083V7.00824L64.4526 24.9283H65.2206V7.00824C67.1406 6.88024 68.9326 5.34424 68.9326 3.16824ZM78.2766 19.9363L75.0766 22.3683L71.8766 19.8083V18.2723L77.8926 14.1763V14.0483L74.8206 9.44024L68.1646 13.0243V21.4723L66.8846 22.4963L67.1406 22.7523L68.2926 21.8563L72.6446 25.0563L78.4046 20.4483L78.2766 19.9363ZM71.8766 17.7603V11.4883L72.1326 11.3603L74.9486 15.8403L71.8766 17.7603ZM99.1406 10.8482L98.2446 11.4883L95.8126 9.44024L92.9966 12.0003L94.1486 13.1523V22.7523L91.0766 20.8323V12.8963L92.1006 12.2563L89.1566 9.44024L86.3406 12.0003L87.4926 13.1523V22.3683L87.1086 22.6243L84.4206 20.7043V13.0243C84.4206 11.2322 83.5246 10.7202 82.5006 10.0802C81.6046 9.44024 81.0926 9.05624 81.0926 8.16024C81.0926 7.39224 81.8606 7.00824 82.2446 6.75224V6.49624C81.2206 6.49624 78.5326 7.52024 78.5326 9.95224C78.5326 11.2322 79.1726 11.7443 79.8126 12.3843C80.4526 13.0243 81.0926 13.5363 81.0926 14.6883V22.1123L79.6846 23.1363L79.9406 23.3923L81.2206 22.3683L84.1646 24.9283L87.3646 22.7523L90.9486 24.9283L97.7326 20.9603V12.3843L99.3966 11.1042L99.1406 10.8482ZM122.949 3.80824L121.669 4.96024L118.853 2.40024L114.629 5.47224V2.65624H114.245L114.373 23.3923C113.989 23.3923 112.837 23.1363 111.941 22.8803L111.685 5.60024C111.685 4.32024 110.789 2.52824 108.485 2.52824C106.181 2.52824 104.645 4.32024 104.645 6.11224H105.029C105.157 5.34424 105.541 4.70424 106.309 4.70424C107.077 4.70424 107.717 5.21624 107.717 6.88024V11.8723C105.413 12.0003 104.005 13.2803 104.005 14.9443C104.005 15.9683 104.517 17.5043 106.053 17.5043V17.2483C105.541 16.9923 105.413 16.6083 105.413 16.3523C105.413 15.5843 106.053 15.3283 107.077 15.3283H107.589V23.2643C105.669 23.9043 104.901 25.3123 104.901 26.8483C104.901 29.0243 106.565 30.5603 109.125 30.5603C110.917 30.5603 112.453 30.3043 113.989 29.9203C115.269 29.6643 116.933 29.2803 117.701 29.2803C118.725 29.2803 119.109 29.7923 119.109 30.4323C119.109 31.3283 118.725 31.7123 118.213 31.8403V32.0963C120.261 31.7123 121.541 30.4323 121.541 28.5123C121.541 26.5923 119.621 25.4403 117.573 25.4403C116.549 25.4403 114.373 25.8243 112.837 26.0803C111.045 26.4643 109.253 26.7203 108.741 26.7203C107.845 26.7203 106.821 26.3363 106.821 25.0563C106.821 24.0323 107.717 23.1363 109.893 23.1363C111.045 23.1363 112.453 23.2643 113.861 23.6483C115.397 24.0323 116.805 24.4163 118.085 24.4163C120.005 24.4163 121.669 23.7763 121.669 21.0883V5.34424L123.205 4.06424L122.949 3.80824ZM117.701 11.6163C117.317 12.0003 116.805 12.3843 116.165 12.3843C115.525 12.3843 114.885 12.0003 114.629 11.6163V5.98424L115.909 5.08824L117.701 6.75224V11.6163ZM117.701 15.4563C117.445 15.2003 116.805 14.8163 116.165 14.8163C115.525 14.8163 114.885 15.2003 114.629 15.4563V12.1283C114.885 12.3843 115.525 12.7683 116.165 12.7683C116.805 12.7683 117.445 12.3843 117.701 12.1283V15.4563ZM117.701 21.4723C117.701 22.4963 117.061 23.5203 115.653 23.5203H114.629V15.9683C114.885 15.7123 115.525 15.3283 116.165 15.3283C116.805 15.3283 117.317 15.7123 117.701 15.9683V21.4723ZM135.237 12.3843L131.141 9.44024L124.869 13.0243V21.3443L123.589 22.3683L123.717 22.6243L124.741 21.8563L128.837 24.9283L135.237 21.0883V12.3843ZM128.325 20.4483V11.2322L131.525 13.5363V22.6243L128.325 20.4483ZM147.397 9.69624H147.141C146.757 9.95224 146.373 10.2082 145.989 10.2082C145.477 10.2082 144.837 9.95224 144.581 9.56824H144.325L142.149 12.0003L139.973 9.56824L136.133 12.1283L136.261 12.3843L137.285 11.7443L138.565 13.1523V21.2163L136.901 22.4963L137.157 22.7523L137.925 22.1123L140.997 24.6723L144.965 21.9843L144.837 21.7283L143.685 22.3683L142.149 21.0883V12.1283C142.789 12.7683 143.557 13.4083 144.453 13.4083C146.245 13.5363 147.269 11.7443 147.397 9.69624ZM162.757 21.9843L158.405 24.9283L152.517 15.9683L156.741 9.44024H156.997C157.509 9.95224 158.277 10.4642 159.173 10.4642C160.069 10.4642 160.709 9.95224 161.093 9.44024H161.349C161.221 12.0003 159.429 13.5363 158.149 13.5363C156.869 13.5363 156.229 12.8963 155.461 12.5123L155.077 13.1523L161.477 22.6243L162.757 21.8563V21.9843ZM148.677 21.3443L147.013 22.6243L147.269 22.8803L148.037 22.2403L150.853 24.8003L154.693 22.2403L154.437 21.9843L153.413 22.6243L152.133 21.3443V1.63224H152.005L147.397 4.70424V4.96024C147.909 5.21624 148.677 5.34424 148.677 6.88024V21.3443ZM184.005 4.32024C184.005 1.76024 181.573 1.12024 179.653 1.12024V1.50424C180.805 1.50424 181.701 1.88824 181.701 2.78424C181.701 3.29624 181.317 4.06424 180.165 4.06424C179.269 4.06424 177.349 3.55224 175.941 3.04024C174.277 2.52824 172.741 2.01624 171.461 2.01624C168.901 2.01624 167.109 3.93624 167.109 6.11224C167.109 8.03224 168.517 8.67224 169.029 8.92824L169.157 8.67224C168.773 8.41624 168.389 8.16024 168.389 7.39224C168.389 6.88024 168.901 5.98424 170.181 5.98424C171.333 5.98424 172.869 6.49624 174.917 7.13624C176.709 7.64824 178.629 8.03224 179.653 8.16024V12.1283L177.733 13.7923V13.9203L179.653 15.5843V21.0883C178.629 21.7283 177.477 21.8563 176.453 21.8563C174.533 21.8563 172.869 21.3443 171.461 19.8083L176.709 17.2483V8.28824L170.309 11.1042C170.949 9.44024 172.357 8.28824 173.637 7.39224L173.509 7.13624C169.669 8.16024 166.213 11.6163 166.213 15.9683C166.213 21.0883 170.437 24.9283 175.173 24.9283C180.293 24.9283 183.621 20.8323 183.621 16.6083H183.365C182.597 18.2723 181.445 19.8083 180.037 20.5763V15.3283L182.085 13.6643V13.5363L180.165 11.8723V8.03224C182.085 8.03224 184.005 6.75224 184.005 4.32024ZM172.869 18.4003L171.333 19.1683C170.437 18.0163 169.925 16.4803 169.925 14.3043C169.925 13.4083 170.053 12.3843 170.309 11.6163L172.997 10.4642L172.869 18.4003ZM188.485 3.04024H188.357L185.797 5.21624V5.34424L187.973 7.77624H188.229L190.789 5.60024V5.47224L188.485 3.04024ZM192.325 21.9843L191.301 22.6243L190.021 21.3443V12.5123L191.301 11.6163L191.045 11.3603L190.149 12.1283L187.845 9.44024L184.133 12.0003L184.389 12.3843L185.285 11.7443L186.437 13.1523V21.4723L184.773 22.7523L184.901 23.0083L185.797 22.3683L188.613 24.9283L192.453 22.3683L192.325 21.9843ZM213.701 21.8563L212.805 22.4963L211.397 21.2163V12.5123L212.677 11.4883L212.421 11.2322L211.397 12.1283L208.453 9.44024L204.613 12.1283L201.669 9.44024L198.085 12.1283L195.781 9.44024L192.069 12.0003L192.197 12.3843L193.093 11.7443L194.373 13.1523V21.4723L193.349 22.4963L196.293 24.9283L199.109 22.3683L197.957 21.2163V12.5123L199.109 11.7443L201.029 13.5363V21.2163L200.005 22.2403L202.949 24.6723L205.765 22.1123L204.613 20.9603V12.5123L205.637 11.8723L207.685 13.6643V21.3443L206.789 22.2403L209.733 24.9283L213.701 22.2403V21.8563ZM224.837 19.9363L221.637 22.3683L218.437 19.8083V18.2723L224.453 14.1763V14.0483L221.381 9.44024L214.725 13.0243V21.7283L219.205 24.9283L224.965 20.3203L224.837 19.9363ZM218.437 17.7603V11.4883L218.693 11.3603L221.509 15.8403L218.437 17.7603ZM236.485 16.6083L234.053 14.6883C235.717 13.2803 236.357 11.3603 236.357 10.0802V9.31224H236.101C235.845 9.95224 235.333 10.5922 234.309 10.5922C233.285 10.5922 232.645 10.0802 232.005 9.31224L226.245 12.5123V17.1203L228.421 18.7843C226.245 20.7043 225.861 21.9843 225.861 23.0083C225.861 24.2883 226.501 25.1843 227.525 25.5683L227.653 25.3123C227.397 25.0563 227.141 24.9283 227.141 24.2883C227.141 23.9043 227.653 23.2643 228.677 23.2643C229.957 23.2643 230.725 24.1603 231.109 24.5443L236.613 21.2163V16.6083H236.485ZM235.077 12.7683C234.181 14.3043 232.261 15.8403 231.109 16.6083L229.701 15.4563V10.9762C230.213 12.2563 231.621 13.2803 233.029 13.2803C233.925 13.2803 234.437 13.1523 235.077 12.7683ZM232.901 23.0083C232.261 21.6003 230.725 20.5763 229.189 20.5763C228.805 20.5763 227.781 20.5763 226.757 21.2163C227.397 20.1923 229.061 18.4003 231.237 17.1203L232.773 18.4003L232.901 23.0083Z" fill="#3D544D"/>
</g>
<defs>
<clipPath id="clip0_1_96">
<rect width="236.8" height="32" fill="white" transform="translate(0.964783 0.608276)"/>
</clipPath>
</defs>
</svg>
