<svg width="91" height="33" viewBox="0 0 91 33" fill="none" xmlns="http://www.w3.org/2000/svg">
<g clip-path="url(#clip0_1_92)">
<path fill-rule="evenodd" clip-rule="evenodd" d="M15.1357 9.98759C15.1342 8.82792 14.6727 7.71621 13.8524 6.89646C13.0322 6.07671 11.9202 5.6159 10.7605 5.61517H4.99224V14.4179H10.7605C11.3401 14.4191 11.914 14.3049 12.449 14.082C12.9839 13.859 13.4692 13.5319 13.8764 13.1195C14.2836 12.7071 14.6047 12.2178 14.8209 11.6801C15.0371 11.1424 15.1441 10.5671 15.1357 9.98759ZM10.7605 0.608276C13.2503 0.608276 15.638 1.59732 17.3985 3.35784C19.1591 5.11835 20.1481 7.50612 20.1481 9.99586C20.1481 12.4856 19.1591 14.8734 17.3985 16.6339C15.638 18.3944 13.2503 19.3834 10.7605 19.3834H4.99224V32.2745H0.00189209V0.608276H10.7605ZM36.5315 19.0497C36.2084 17.8032 35.4792 16.6999 34.4591 15.9141C33.439 15.1283 32.1861 14.7047 30.8984 14.7103C28.1398 14.7103 25.8778 16.4703 25.2571 19.0497H36.5315ZM30.9481 10.2883C37.4033 10.2883 41.9109 15.4276 41.9109 22.7821V23.1793H25.2571C26.1426 25.9379 28.5343 27.7697 31.3509 27.7697C34.286 27.7697 36.5012 25.9214 37.315 25.1269L37.624 24.829L40.6226 28.4869L40.3633 28.7407C37.8364 31.2235 34.6226 32.6028 31.3095 32.6028C24.9646 32.6028 20.0129 27.5738 20.0129 21.1517C20.0014 19.717 20.2765 18.2944 20.822 16.9674C21.3675 15.6404 22.1724 14.4357 23.1897 13.4239C24.2069 12.412 25.4159 11.6135 26.7458 11.0751C28.0757 10.5366 29.4997 10.2691 30.9343 10.2883H30.9481ZM50.0653 3.98759V10.6083H56.8874V15.0855H50.0515V24.4648C50.0467 24.8353 50.116 25.2031 50.2554 25.5464C50.3947 25.8898 50.6012 26.2018 50.8629 26.4642C51.1245 26.7266 51.4359 26.934 51.7789 27.0744C52.1218 27.2147 52.4893 27.2851 52.8598 27.2814H56.7909V32.2883H52.7771C48.0874 32.2883 45.0529 29.2014 45.0529 24.4235V4.00966L50.0653 3.98759ZM76.0681 21.4055C76.0567 20.1941 75.687 19.0131 75.0056 18.0114C74.3243 17.0097 73.3617 16.232 72.2392 15.7763C71.1167 15.3206 69.8844 15.2073 68.6976 15.4506C67.5108 15.6939 66.4225 16.283 65.5699 17.1437C64.7173 18.0044 64.1385 19.0981 63.9063 20.2871C63.6741 21.4762 63.799 22.7073 64.2652 23.8255C64.7314 24.9437 65.5181 25.8989 66.5262 26.5708C67.5343 27.2428 68.7187 27.6013 69.9302 27.6014C70.7393 27.5974 71.5397 27.4339 72.2856 27.1203C73.0315 26.8066 73.7083 26.3489 74.2771 25.7734C74.8459 25.198 75.2957 24.5159 75.6006 23.7664C75.9056 23.0169 76.0598 22.2147 76.0543 21.4055H76.0681ZM76.6198 12.7462V10.6221H80.9895V32.2745H76.6364V30.1503C74.746 31.7467 72.3492 32.618 69.875 32.6083C68.3947 32.6316 66.9245 32.3601 65.5501 31.8097C64.1757 31.2593 62.9246 30.441 61.8695 29.4024C60.8145 28.3638 59.9766 27.1256 59.4046 25.7601C58.8327 24.3945 58.5381 22.9288 58.5381 21.4483C58.5381 19.9678 58.8327 18.5021 59.4046 17.1365C59.9766 15.7709 60.8145 14.5328 61.8695 13.4942C62.9246 12.4556 64.1757 11.6373 65.5501 11.0869C66.9245 10.5365 68.3947 10.265 69.875 10.2883C72.3332 10.298 74.7106 11.1676 76.595 12.7462H76.6198ZM85.5191 32.2745V2.27724H90.4846V32.2745H85.5191Z" fill="#3D544D"/>
</g>
<defs>
<clipPath id="clip0_1_92">
<rect width="90.4828" height="32" fill="white" transform="translate(0.00213623 0.608276)"/>
</clipPath>
</defs>
</svg>
