<svg width="109" height="33" viewBox="0 0 109 33" fill="none" xmlns="http://www.w3.org/2000/svg">
<g clip-path="url(#clip0_1_94)">
<path d="M27.6478 32.6082L87.4373 27.426H22.4656L27.6478 32.6082Z" fill="#3D544D"/>
<path d="M101.299 6.04951C100.073 6.07816 98.8806 6.46056 97.8662 7.15072V6.43817H93.85V24.0576H97.8662V13.758C97.8379 13.3068 97.9024 12.8545 98.0556 12.4292C98.2089 12.0038 98.4476 11.6143 98.7572 11.2848C99.0667 10.9552 99.4405 10.6926 99.8555 10.5131C100.27 10.3335 100.718 10.2409 101.17 10.2409C101.622 10.2409 102.069 10.3335 102.484 10.5131C102.899 10.6926 103.273 10.9552 103.583 11.2848C103.892 11.6143 104.131 12.0038 104.284 12.4292C104.437 12.8545 104.502 13.3068 104.474 13.758V24.1224H108.49V13.758C108.49 9.48271 105.575 6.04951 101.299 6.04951Z" fill="#3D544D"/>
<path d="M84.5868 5.98483C79.9228 5.98483 76.6192 10.0658 76.6192 15.248C76.6192 20.6893 80.7649 24.5111 84.9755 24.5111C87.1131 24.5111 89.769 23.7986 92.0362 20.5597L88.4734 18.4869C85.7528 22.503 81.1536 20.4949 80.6354 16.414H92.1657C93.2022 10.1954 89.1212 5.98483 84.5868 5.98483ZM80.8945 12.9808C81.7366 8.89981 87.3074 8.6407 88.0848 12.9808H80.8945Z" fill="#3D544D"/>
<path d="M68.0686 18.2277C68.0329 19.0351 68.1602 19.8415 68.4429 20.5987C68.7257 21.3558 69.158 22.0483 69.7142 22.6347C70.2704 23.2211 70.9391 23.6895 71.6802 24.0119C72.4214 24.3343 73.2199 24.504 74.0281 24.5111C75.3936 24.4632 76.7271 24.0854 77.9147 23.4099L75.3236 19.9119C74.9258 20.1958 74.4519 20.3537 73.9633 20.3653C73.6964 20.3578 73.4339 20.2953 73.1922 20.1818C72.9505 20.0683 72.7348 19.9062 72.5585 19.7056C72.3823 19.505 72.2492 19.2703 72.1677 19.016C72.0862 18.7617 72.058 18.4934 72.0848 18.2277V10.6487H75.518V6.43821H72.0848V2.03335H68.0686V6.43821H65.9309V10.6487H68.0686V18.2277Z" fill="#3D544D"/>
<path d="M57.1214 24.5111C58.348 24.4825 59.5402 24.1001 60.5546 23.4099V24.0577H64.5708V6.43824H60.5546V16.8026C60.5829 17.2539 60.5184 17.7061 60.3652 18.1315C60.2119 18.5568 59.9732 18.9463 59.6636 19.2758C59.3541 19.6054 58.9803 19.868 58.5654 20.0476C58.1504 20.2271 57.7031 20.3197 57.251 20.3197C56.7988 20.3197 56.3515 20.2271 55.9366 20.0476C55.5216 19.868 55.1478 19.6054 54.8383 19.2758C54.5287 18.9463 54.29 18.5568 54.1368 18.1315C53.9835 17.7061 53.919 17.2539 53.9473 16.8026V6.43824H49.9311V16.8026C49.9311 21.0779 52.8461 24.5111 57.1214 24.5111Z" fill="#3D544D"/>
<path d="M38.8543 16.8674L44.8138 24.1224H50.3846L42.417 14.7297L49.2834 6.43824H43.7126L38.8543 12.5921V0.608276H34.7733V24.1224H38.8543V16.8674Z" fill="#3D544D"/>
<path d="M28.4896 23.2804V24.0577H32.5058V6.43827H28.4896V7.2156C27.3951 6.42579 26.0822 5.9957 24.7326 5.98483C20.1981 5.98483 16.7002 10.1306 16.7002 15.248C16.7002 20.3654 20.1334 24.5111 24.7326 24.5111C26.0839 24.5104 27.3998 24.0793 28.4896 23.2804ZM20.7811 15.3128C20.7811 12.5273 22.4006 10.3249 24.6678 10.3249C26.935 10.3249 28.4896 12.5273 28.4896 15.3128C28.4896 18.0982 26.935 20.3006 24.6678 20.3006C22.4006 20.3006 20.7811 18.0982 20.7811 15.3128Z" fill="#3D544D"/>
<path d="M15.4048 9.61229C15.403 7.60276 14.604 5.67602 13.183 4.25506C11.7621 2.83411 9.83534 2.03506 7.82581 2.03335H0.959412V24.0576H5.16994V17.256H8.08492L13.2023 24.0576H18.4493L12.2307 15.8309C13.2231 15.1282 14.0303 14.1953 14.5831 13.1123C15.1359 12.0292 15.4178 10.8282 15.4048 9.61229ZM7.89058 13.1103H5.16994V6.24387H7.89058C8.80112 6.24387 9.67437 6.60558 10.3182 7.24943C10.9621 7.89328 11.3238 8.76653 11.3238 9.67707C11.3238 10.5876 10.9621 11.4609 10.3182 12.1047C9.67437 12.7486 8.80112 13.1103 7.89058 13.1103Z" fill="#3D544D"/>
</g>
<defs>
<clipPath id="clip0_1_94">
<rect width="107.53" height="32" fill="white" transform="translate(0.959656 0.608276)"/>
</clipPath>
</defs>
</svg>
