<svg width="106" height="33" viewBox="0 0 106 33" fill="none" xmlns="http://www.w3.org/2000/svg">
<g clip-path="url(#clip0_1_90)">
<path d="M68.3376 8.00555C66.6418 7.99021 64.9798 8.47953 63.5628 9.41129C62.1459 10.3431 61.038 11.6752 60.3802 13.2382C59.7224 14.8013 59.5442 16.5247 59.8685 18.1893C60.1927 19.8538 61.0046 21.3844 62.201 22.5863C63.3975 23.7881 64.9243 24.6071 66.5874 24.9389C68.2504 25.2707 69.9746 25.1004 71.5407 24.4497C73.1067 23.799 74.4439 22.6973 75.3821 21.2846C76.3203 19.8719 76.8172 18.2121 76.8096 16.5163C76.8121 15.4012 76.595 14.2965 76.1706 13.2653C75.7463 12.2341 75.1229 11.2966 74.3362 10.5063C73.5495 9.71601 72.6149 9.0884 71.5856 8.65932C70.5564 8.23025 69.4527 8.00809 68.3376 8.00555ZM68.4054 21.6092C67.7506 21.6176 67.1007 21.4952 66.4938 21.2491C65.8869 21.0031 65.3353 20.6383 64.8713 20.1762C64.2914 19.6027 63.8619 18.895 63.6209 18.1158C63.38 17.3366 63.335 16.5099 63.49 15.7092C63.645 14.9084 63.9952 14.1583 64.5095 13.5252C65.0238 12.8922 65.6863 12.3959 66.4384 12.0802C67.1905 11.7646 68.0088 11.6393 68.8208 11.7157C69.6329 11.792 70.4136 12.0675 71.0936 12.5177C71.7737 12.968 72.3322 13.5791 72.7196 14.2968C73.1069 15.0146 73.3112 15.8169 73.3143 16.6325C73.2852 17.935 72.7581 19.1768 71.8414 20.1025C70.9247 21.0282 69.6881 21.5674 68.386 21.6092H68.4054ZM87.1406 12.0334C86.5655 12.041 85.9975 12.1621 85.4694 12.3897C84.9412 12.6174 84.4632 12.9472 84.0628 13.3602C83.6625 13.7731 83.3476 14.2611 83.1364 14.7961C82.9252 15.3311 82.8217 15.9025 82.832 16.4776V24.601H79.143L79.0946 8.47999H82.7836V11.0071C83.3122 10.2348 84.0177 9.59997 84.8412 9.15536C85.6647 8.71076 86.5825 8.46925 87.5182 8.45094H88.593V12.0334H87.1406ZM50.3479 8.62522L53.1073 19.6824L56.012 8.59617H59.701L55.1406 24.7656H51.5582L48.6535 13.4954L45.8553 24.814H42.2631L37.422 8.70268H41.0141L44.248 19.7308L46.8332 8.64458L50.3479 8.62522ZM99.4081 15.7708C100.703 15.014 101.777 13.931 102.523 12.6296C103.269 11.3282 103.66 9.85405 103.659 8.35412H99.9697C99.9852 9.65533 99.4844 10.9097 98.5771 11.8424C97.6697 12.7752 96.4297 13.3104 95.1285 13.3308H94.596L94.5573 0.608276H90.8683L91.0135 24.5623H94.7025V16.9714H95.1285C95.3239 16.9499 95.5212 16.9885 95.6941 17.0819C95.8671 17.1753 96.0075 17.3191 96.0967 17.4942L101.296 24.5332H105.614L99.4081 15.7708Z" fill="#3D544D"/>
<path d="M28.9017 8.1992C24.8932 8.1992 21.853 10.8618 20.7104 15.0833C18.8846 12.2406 17.4546 9.16238 16.4599 5.93354H12.2481V17.1069C12.2481 18.17 11.8258 19.1896 11.0741 19.9413C10.3223 20.6931 9.30275 21.1154 8.23964 21.1154C7.17653 21.1154 6.15695 20.6931 5.40522 19.9413C4.65349 19.1896 4.23117 18.17 4.23117 17.1069V5.93354L0 6.011L0.0484115 17.1844C0.0445884 18.2727 0.255643 19.351 0.669471 20.3576C1.0833 21.3641 1.69176 22.2791 2.45996 23.05C3.22816 23.8209 4.14098 24.4326 5.14608 24.8499C6.15119 25.2673 7.22879 25.4821 8.3171 25.4821C9.40503 25.467 10.4793 25.2371 11.4781 24.8055C12.4769 24.374 13.3805 23.7494 14.1372 22.9675C14.8939 22.1856 15.4886 21.262 15.8872 20.2496C16.2858 19.2372 16.4804 18.156 16.4599 17.0682V15.1317C17.3455 16.8972 18.3788 18.5847 19.5486 20.1762L16.9924 32.6083L21.3011 32.5599L23.1601 23.5844C24.8951 24.6888 26.9128 25.2672 28.9694 25.2497C31.186 25.1657 33.2831 24.2236 34.8179 22.6222C36.3527 21.0209 37.2051 18.8857 37.195 16.6676C37.185 14.4496 36.3133 12.3222 34.764 10.7348C33.2147 9.14748 31.1092 8.22438 28.892 8.16047L28.9017 8.1992ZM28.9598 20.9411C27.205 20.895 25.5222 20.2335 24.2058 19.0724L24.6221 17.3877V17.2909C24.9319 15.4997 25.8614 12.4497 29.0275 12.4497C30.1447 12.4471 31.2176 12.8865 32.0121 13.6719C32.8065 14.4573 33.2582 15.525 33.2684 16.6422C33.2207 17.7687 32.7512 18.8361 31.953 19.6324C31.1548 20.4288 30.0864 20.8959 28.9598 20.9411Z" fill="#3D544D"/>
</g>
<defs>
<clipPath id="clip0_1_90">
<rect width="105.527" height="32" fill="white" transform="translate(0 0.608276)"/>
</clipPath>
</defs>
</svg>
