<svg width="102" height="33" viewBox="0 0 102 33" fill="none" xmlns="http://www.w3.org/2000/svg">
<g clip-path="url(#clip0_1_98)">
<path fill-rule="evenodd" clip-rule="evenodd" d="M101.937 5.33972C102.047 5.77514 101.559 6.19343 101.306 6.51343C99.1766 9.17971 96.8155 12.334 93.9789 14.3591C94.1835 15.4197 94.0749 16.8277 93.7046 17.6048C94.4475 18.5511 95.236 19.4471 95.6955 20.6723C95.0909 23.8723 93.6875 26.3546 91.444 27.9774C89.2543 29.5591 86.2955 30.1831 82.9389 30.9534C76.4486 32.4448 65.7698 33.9157 60.9549 30.0506C55.7412 33.0997 45.2052 33.502 40.3286 29.87C36.8623 34.2437 23.1881 33.8597 25.2223 25.1808C22.6863 27.0951 18.9366 29.734 15.3595 31.2243C11.211 32.95 3.35497 32.7557 4.14011 26.8951C4.23497 26.1968 4.53097 25.8026 4.86468 25.1808C3.65097 23.07 2.88411 21.6048 2.1504 19.7694C1.44754 18.0094 0.375538 16.006 0.249824 13.5477C-0.0130329 8.318 4.07611 5.00257 8.12411 3.44486C10.1893 2.65057 11.8669 1.49971 13.9126 0.922571C16.9698 0.0539994 19.5903 1.73057 19.7926 4.52943C23.3469 3.478 27.6749 2.318 32.3686 2.99686C36.1058 0.0997124 43.4041 1.88943 48.2006 3.26543C49.2852 3.57743 50.7446 4.38314 51.548 4.34886C52.2281 4.32143 53.4566 3.40143 54.1698 3.086C57.5355 1.598 61.9355 0.0139995 66.7458 0.831142C67.6566 0.984285 68.4898 1.46543 69.4589 1.55114C70.1172 1.61171 70.9218 1.406 71.6303 1.37286C82.8726 0.825428 92.2315 3.83343 101.937 5.33972ZM70.4555 4.98086C69.3069 5.118 68.492 6.37057 67.7412 6.78429C67.796 6.77857 67.8475 6.76943 67.8303 6.69286C67.9675 6.078 68.2303 5.58772 68.2829 4.89057C62.2623 2.77629 56.4029 5.86657 52.0909 8.22657C48.6418 10.1123 45.5652 12.3294 43.4052 14.5386C44.1858 13.2128 45.0143 11.9009 45.9389 10.662C46.8761 9.40372 47.9195 8.26543 48.7446 7.14543C46.9412 6.67457 45.1332 6.17743 43.3138 5.79114C40.7286 5.24257 37.1332 4.334 34.9915 5.52143C34.3721 5.86429 33.8646 6.70886 33.2726 6.78429C32.7823 6.84714 31.9755 6.49057 31.3721 6.42429C29.1618 6.17857 27.1275 6.38314 25.1298 6.78429C23.2589 7.158 19.3035 7.82086 18.7961 9.57857C18.4715 10.7077 19.1961 11.8014 19.0681 12.918C18.9446 14.0151 17.8863 15.4688 17.3492 16.3443C16.6921 17.4186 16.0235 18.3694 14.9058 18.8688C14.2292 15.5088 14.9652 12.5203 15.5401 9.67114C15.8943 7.91457 16.6086 6.11686 15.9938 4.34886C14.2681 4.11 12.8155 5.47114 11.107 6.15114C7.89782 7.43114 4.32411 8.598 3.8704 12.2848C3.6144 14.3614 4.39725 15.6814 4.95611 17.1557C6.06043 20.1055 7.55156 22.8956 9.3904 25.4528C8.91039 26.3306 7.78239 26.5591 7.66925 27.7957C8.18011 28.5157 9.24297 28.6117 10.2933 28.6083C13.3286 28.6014 15.8178 27.0791 18.0726 25.8128C22.9823 23.0586 26.2806 18.8197 29.7446 14.8106C30.3526 14.1054 30.8532 13.2563 31.6452 12.8266C32.4223 16.3888 30.9103 18.294 29.8338 21.2128C29.4189 22.3374 28.1103 25.8574 28.7481 27.5248C29.4475 29.3591 35.4029 29.4391 36.9812 28.2494C37.7766 27.6494 38.0932 26.2951 38.5206 25.4528C39.0658 24.3694 39.5378 23.4346 39.9675 22.4768C39.9915 26.4277 42.9355 27.5877 46.1183 28.4288C52.8841 30.2117 59.7069 27.0266 63.3983 24.8231C62.9366 27.75 64.0772 28.0437 66.3846 28.5203C72.3503 29.7477 78.3583 28.3317 83.2109 27.166C87.66 26.0986 91.2372 25.3443 91.8966 20.942C91.1846 20.3283 89.4052 20.4048 88.188 20.5831C84.5995 21.1066 81.1252 22.9146 76.3366 22.566C75.4623 22.5031 73.5755 22.1991 73.4395 21.6654C73.2292 20.8334 74.7241 20.2506 75.9766 20.0426C79.5652 19.4368 84.7538 20.0483 87.644 18.9568C89.0315 18.4357 90.7058 16.9294 90.5378 15.2608C90.428 14.134 88.9526 13.5443 87.5526 13.4586C83.5938 13.2117 80.764 15.5157 76.6098 14.7203C77.1286 14.0666 77.2223 12.9888 77.8738 12.4666C80.9126 12.4026 83.8646 13.0037 86.74 12.8266C90.7378 12.5774 92.9915 10.8986 94.8829 8.678C95.0852 8.438 95.5926 8.18086 95.4258 7.77743C88.4818 6.72371 79.0166 3.934 70.4555 4.98086ZM56.7035 11.9226C56.2578 13.9454 55.3263 16.2608 54.8041 18.5054C57.6795 18.5466 60.7126 17.9614 63.6692 17.7843C64.0692 17.2517 64.2658 16.5157 64.484 15.8003C65.0772 16.6368 65.4943 18.2026 64.9366 19.4071C60.4463 19.3443 57.2189 23.0106 52.8143 23.014C50.8418 23.0163 49.1652 21.886 50.0989 19.6768C51.4178 16.5626 54.6886 14.3866 56.7035 11.9226ZM67.1983 8.58543C68.044 9.54657 69.8955 9.50543 70.9972 10.2106C69.5103 10.5911 67.6383 10.5889 66.292 11.11C66.6098 10.2826 66.8943 9.42429 67.1983 8.58543Z" fill="#3D544D"/>
</g>
<defs>
<clipPath id="clip0_1_98">
<rect width="101.714" height="32" fill="white" transform="translate(0.239502 0.608276)"/>
</clipPath>
</defs>
</svg>
